<svg id="svg" version="1.1" xmlns="http://www.w3.org/2000/svg" xmlns:xlink="http://www.w3.org/1999/xlink" width="400" height="185.5072463768116" viewBox="0, 0, 400,185.5072463768116"><g id="svgg"><path id="path0" d="M76.427 39.590 C 76.373 39.644,74.579 39.772,72.441 39.875 C 70.045 39.990,68.197 40.169,67.625 40.341 C 67.115 40.494,66.044 40.698,65.246 40.795 C 64.375 40.899,63.660 41.091,63.459 41.273 C 63.275 41.440,62.551 41.665,61.851 41.774 C 61.152 41.883,60.386 42.124,60.150 42.310 C 59.914 42.495,59.245 42.706,58.664 42.778 C 58.082 42.850,57.420 43.054,57.191 43.233 C 56.962 43.411,56.480 43.613,56.118 43.681 C 55.757 43.748,55.160 44.008,54.792 44.258 C 54.424 44.508,53.980 44.712,53.806 44.712 C 53.632 44.712,53.342 44.876,53.160 45.077 C 52.979 45.277,52.528 45.539,52.158 45.659 C 51.787 45.780,51.421 45.985,51.344 46.116 C 51.266 46.247,50.891 46.454,50.509 46.577 C 50.127 46.699,49.647 46.945,49.443 47.124 C 49.239 47.303,48.759 47.550,48.377 47.672 C 47.994 47.795,47.681 47.976,47.681 48.076 C 47.681 48.175,47.389 48.379,47.032 48.528 C 46.674 48.677,46.382 48.865,46.382 48.946 C 46.382 49.071,45.417 49.846,44.378 50.557 C 44.228 50.659,43.888 50.936,43.621 51.172 C 42.838 51.866,42.654 52.022,41.095 53.317 C 40.278 53.994,39.527 54.618,39.425 54.704 C 39.323 54.789,38.810 55.331,38.286 55.908 L 37.333 56.957 45.068 56.957 L 52.804 56.957 53.399 57.397 C 54.537 58.236,75.089 78.945,75.230 79.394 C 75.358 79.802,74.848 80.365,69.882 85.299 L 64.393 90.754 63.715 90.237 C 63.343 89.952,56.533 83.221,48.583 75.279 C 40.632 67.336,34.046 60.888,33.947 60.949 C 33.848 61.011,33.766 61.149,33.766 61.256 C 33.766 61.363,33.442 61.839,33.046 62.312 C 32.650 62.785,32.189 63.465,32.022 63.822 C 31.676 64.563,31.265 65.299,30.675 66.234 C 30.449 66.591,30.207 67.119,30.136 67.408 C 30.066 67.697,29.894 67.977,29.755 68.030 C 29.616 68.084,29.403 68.458,29.282 68.863 C 29.161 69.268,28.921 69.697,28.749 69.818 C 28.577 69.938,28.374 70.317,28.299 70.659 C 28.224 71.001,28.006 71.437,27.815 71.628 C 27.613 71.830,27.391 72.453,27.284 73.118 C 27.183 73.747,26.973 74.402,26.817 74.573 C 26.662 74.745,26.496 75.130,26.448 75.430 C 26.400 75.729,26.312 76.284,26.253 76.664 C 26.193 77.043,26.019 77.480,25.864 77.634 C 25.710 77.789,25.500 78.436,25.397 79.074 C 25.294 79.711,25.058 80.485,24.871 80.793 C 24.607 81.230,24.487 82.032,24.333 84.417 C 24.210 86.309,24.018 87.799,23.832 88.314 C 23.393 89.522,23.394 96.008,23.832 97.216 C 24.017 97.728,24.214 99.236,24.339 101.113 C 24.500 103.522,24.615 104.276,24.877 104.652 C 25.060 104.914,25.267 105.582,25.337 106.136 C 25.407 106.690,25.624 107.409,25.820 107.735 C 26.016 108.061,26.261 108.853,26.365 109.496 C 26.468 110.138,26.676 110.799,26.826 110.965 C 26.977 111.132,27.185 111.796,27.289 112.441 C 27.413 113.210,27.595 113.697,27.818 113.853 C 28.004 113.984,28.216 114.403,28.288 114.785 C 28.359 115.167,28.568 115.584,28.752 115.713 C 28.935 115.842,29.142 116.173,29.212 116.449 C 29.281 116.725,29.541 117.193,29.789 117.488 C 30.038 117.783,30.241 118.149,30.241 118.301 C 30.241 118.453,30.450 118.851,30.705 119.186 C 30.960 119.520,31.169 119.926,31.169 120.087 C 31.169 120.248,31.378 120.628,31.633 120.931 C 31.888 121.234,32.096 121.612,32.096 121.770 C 32.096 121.929,32.305 122.284,32.560 122.559 C 32.815 122.835,33.024 123.276,33.024 123.541 C 33.024 123.937,38.918 118.131,66.373 90.685 C 85.351 71.714,99.947 57.263,100.244 57.152 C 100.578 57.028,103.551 56.957,108.500 56.956 L 116.234 56.955 114.339 55.147 C 113.297 54.153,112.192 53.131,111.883 52.876 C 111.573 52.621,111.090 52.222,110.809 51.990 C 110.527 51.758,109.671 51.069,108.905 50.459 C 108.140 49.850,107.344 49.184,107.136 48.980 C 106.929 48.776,106.664 48.609,106.548 48.609 C 106.431 48.609,106.095 48.405,105.800 48.157 C 105.504 47.908,105.037 47.648,104.761 47.579 C 104.484 47.510,104.156 47.313,104.031 47.142 C 103.906 46.970,103.457 46.729,103.034 46.604 C 102.611 46.480,102.220 46.262,102.165 46.120 C 102.111 45.977,101.808 45.804,101.492 45.735 C 101.177 45.665,100.691 45.420,100.413 45.189 C 100.135 44.958,99.680 44.713,99.402 44.646 C 99.124 44.578,98.749 44.368,98.567 44.178 C 98.386 43.989,97.908 43.774,97.505 43.701 C 97.102 43.628,96.580 43.417,96.343 43.231 C 96.104 43.043,95.423 42.836,94.805 42.764 C 94.180 42.692,93.506 42.486,93.261 42.293 C 93.021 42.105,92.373 41.894,91.821 41.826 C 91.268 41.758,90.529 41.538,90.177 41.337 C 89.819 41.132,88.719 40.849,87.681 40.695 C 86.660 40.543,85.665 40.333,85.470 40.228 C 85.275 40.124,83.454 39.967,81.423 39.879 C 79.392 39.791,77.459 39.668,77.127 39.606 C 76.796 39.543,76.481 39.537,76.427 39.590 M85.807 94.249 C 62.851 117.210,51.988 127.953,51.472 128.204 C 50.763 128.549,50.317 128.571,44.020 128.571 L 37.322 128.571 38.676 129.917 C 39.420 130.656,40.291 131.470,40.611 131.725 C 40.930 131.981,41.444 132.419,41.753 132.699 C 42.061 132.980,42.388 133.210,42.480 133.210 C 42.572 133.210,42.700 133.377,42.764 133.581 C 42.829 133.785,42.996 133.952,43.134 133.952 C 43.273 133.952,43.551 134.160,43.752 134.416 C 43.952 134.671,44.189 134.879,44.277 134.879 C 44.365 134.879,44.895 135.260,45.456 135.726 C 46.871 136.902,48.235 137.796,48.845 137.948 C 49.129 138.018,49.439 138.224,49.536 138.404 C 49.633 138.585,49.995 138.785,50.341 138.850 C 50.686 138.915,51.115 139.129,51.292 139.325 C 51.470 139.522,51.861 139.736,52.161 139.802 C 52.461 139.868,52.924 140.123,53.189 140.369 C 53.455 140.615,53.820 140.816,54.002 140.816 C 54.183 140.816,54.567 141.013,54.856 141.253 C 55.144 141.494,55.710 141.751,56.113 141.825 C 56.515 141.899,57.038 142.112,57.274 142.298 C 57.513 142.486,58.195 142.693,58.813 142.764 C 59.437 142.837,60.112 143.043,60.357 143.236 C 60.597 143.424,61.245 143.637,61.797 143.708 C 62.350 143.780,63.177 144.027,63.636 144.257 C 64.143 144.512,65.004 144.725,65.828 144.800 C 66.574 144.867,67.576 145.046,68.054 145.196 C 70.127 145.848,83.407 145.910,85.055 145.275 C 85.356 145.159,86.505 144.946,87.608 144.800 C 88.947 144.624,89.783 144.417,90.122 144.178 C 90.402 143.981,91.083 143.766,91.635 143.699 C 92.188 143.633,92.833 143.426,93.070 143.239 C 93.307 143.053,93.971 142.842,94.544 142.770 C 95.118 142.699,95.966 142.438,96.430 142.192 C 96.893 141.946,97.436 141.744,97.635 141.744 C 97.835 141.744,98.246 141.535,98.550 141.280 C 98.853 141.025,99.255 140.816,99.443 140.816 C 99.632 140.816,100.028 140.613,100.323 140.365 C 100.618 140.116,101.105 139.852,101.404 139.778 C 101.703 139.704,102.050 139.499,102.175 139.324 C 102.300 139.148,102.686 138.951,103.031 138.886 C 103.377 138.821,103.802 138.610,103.977 138.418 C 104.152 138.225,104.512 138.012,104.779 137.945 C 105.045 137.878,105.504 137.620,105.800 137.372 C 106.095 137.124,106.425 136.920,106.533 136.920 C 106.641 136.920,106.920 136.732,107.152 136.503 C 107.385 136.273,107.854 135.860,108.194 135.585 C 108.534 135.311,109.116 134.830,109.486 134.519 C 109.857 134.207,110.244 133.952,110.346 133.952 C 110.449 133.952,110.669 133.743,110.836 133.488 C 111.004 133.233,111.205 133.024,111.285 133.024 C 111.801 133.024,116.209 128.637,115.836 128.494 C 115.681 128.435,101.973 128.385,85.374 128.383 C 68.776 128.381,55.086 128.311,54.952 128.226 C 54.279 127.800,55.001 126.963,62.454 119.527 L 69.938 112.059 88.976 112.059 L 108.013 112.059 108.580 112.463 C 109.004 112.765,114.707 118.427,116.448 120.274 C 116.565 120.399,117.462 121.281,118.440 122.234 L 120.219 123.967 120.406 123.474 C 120.509 123.203,120.594 122.906,120.594 122.814 C 120.594 122.723,120.754 122.562,120.950 122.457 C 121.145 122.352,121.362 122.012,121.430 121.700 C 121.498 121.389,121.756 120.916,122.002 120.651 C 122.248 120.386,122.449 120.020,122.449 119.839 C 122.449 119.657,122.658 119.261,122.913 118.958 C 123.168 118.655,123.377 118.284,123.377 118.135 C 123.377 117.985,123.585 117.555,123.840 117.179 C 124.096 116.803,124.304 116.428,124.304 116.346 C 124.304 116.264,124.553 115.829,124.857 115.380 C 125.162 114.931,125.412 114.452,125.414 114.314 C 125.416 114.177,125.592 113.820,125.805 113.520 C 126.019 113.220,126.253 112.534,126.326 111.994 C 126.400 111.454,126.632 110.726,126.842 110.376 C 127.053 110.026,127.273 109.304,127.332 108.771 C 127.391 108.238,127.602 107.571,127.801 107.287 C 128.000 107.004,128.211 106.315,128.271 105.756 C 128.330 105.197,128.532 104.529,128.720 104.271 C 129.004 103.883,129.097 103.190,129.268 100.186 C 129.401 97.856,129.578 96.279,129.765 95.756 C 130.169 94.629,130.163 90.764,129.756 89.610 C 129.566 89.072,129.390 87.524,129.262 85.250 C 129.097 82.327,129.004 81.646,128.721 81.257 C 128.532 81.000,128.325 80.332,128.259 79.773 C 128.193 79.214,127.944 78.390,127.706 77.941 C 127.468 77.492,127.273 76.834,127.273 76.478 C 127.273 76.123,127.102 75.556,126.893 75.218 C 126.684 74.880,126.429 74.077,126.325 73.434 C 126.214 72.746,125.989 72.106,125.777 71.880 C 125.579 71.670,125.417 71.376,125.417 71.228 C 125.417 71.079,125.221 70.667,124.980 70.312 C 124.739 69.957,124.477 69.457,124.398 69.202 C 124.318 68.947,124.056 68.502,123.815 68.214 C 123.574 67.926,123.377 67.562,123.377 67.406 C 123.377 67.250,123.168 66.874,122.913 66.571 C 122.658 66.268,122.449 65.871,122.449 65.690 C 122.449 65.509,122.248 65.143,122.002 64.878 C 121.756 64.612,121.498 64.137,121.429 63.822 C 121.359 63.507,121.096 63.023,120.843 62.747 C 120.589 62.471,120.245 62.096,120.077 61.913 C 119.909 61.731,119.685 61.374,119.580 61.122 C 119.396 60.683,117.881 62.169,85.807 94.249 M142.874 66.967 C 143.069 67.370,143.228 67.830,143.228 67.989 C 143.228 68.148,143.395 68.421,143.598 68.595 C 143.802 68.769,144.063 69.207,144.179 69.567 C 144.296 69.928,144.546 70.371,144.735 70.552 C 144.924 70.734,145.134 71.110,145.202 71.387 C 145.270 71.665,145.521 72.128,145.761 72.417 C 146.001 72.705,146.197 73.090,146.197 73.271 C 146.197 73.452,146.405 73.826,146.660 74.101 C 146.916 74.376,147.124 74.706,147.124 74.834 C 147.124 74.962,147.333 75.350,147.588 75.696 C 147.843 76.042,148.052 76.476,148.052 76.661 C 148.052 76.846,148.218 77.141,148.422 77.315 C 148.625 77.489,148.887 77.927,149.003 78.287 C 149.119 78.648,149.369 79.091,149.559 79.272 C 149.748 79.454,149.958 79.829,150.026 80.107 C 150.094 80.385,150.338 80.840,150.569 81.118 C 150.800 81.396,151.044 81.876,151.112 82.185 C 151.180 82.493,151.315 82.746,151.413 82.746 C 151.510 82.746,151.756 83.101,151.959 83.534 C 152.362 84.395,152.742 85.084,153.363 86.085 C 153.585 86.442,153.827 86.943,153.901 87.199 C 153.974 87.454,154.191 87.811,154.381 87.992 C 154.571 88.174,154.782 88.549,154.850 88.827 C 154.917 89.105,155.162 89.560,155.393 89.838 C 155.624 90.116,155.868 90.596,155.936 90.905 C 156.004 91.213,156.139 91.466,156.237 91.466 C 156.334 91.466,156.580 91.821,156.783 92.254 C 157.186 93.115,157.565 93.804,158.187 94.805 C 158.409 95.162,158.648 95.651,158.720 95.890 C 158.791 96.130,159.006 96.483,159.197 96.674 C 159.389 96.865,159.602 97.254,159.671 97.537 C 159.740 97.820,159.993 98.288,160.232 98.576 C 160.472 98.865,160.668 99.203,160.668 99.329 C 160.668 99.454,160.877 99.840,161.132 100.186 L 161.596 100.814 161.596 109.475 C 161.596 114.238,161.648 118.396,161.712 118.715 L 161.827 119.295 167.163 119.295 L 172.499 119.295 172.799 118.838 C 173.063 118.434,173.098 117.412,173.098 110.129 C 173.098 105.590,173.172 101.832,173.261 101.777 C 173.351 101.721,173.515 101.315,173.626 100.874 C 173.737 100.432,173.998 99.876,174.205 99.636 C 174.413 99.397,174.583 99.100,174.583 98.977 C 174.583 98.854,174.790 98.447,175.044 98.073 C 175.298 97.699,175.558 97.184,175.622 96.929 C 175.686 96.674,175.886 96.386,176.067 96.290 C 176.247 96.193,176.449 95.822,176.516 95.465 C 176.583 95.108,176.794 94.707,176.983 94.574 C 177.173 94.441,177.418 94.000,177.528 93.595 C 177.637 93.189,177.896 92.752,178.103 92.624 C 178.312 92.494,178.479 92.192,178.479 91.942 C 178.479 91.696,178.687 91.246,178.942 90.943 C 179.198 90.640,179.406 90.311,179.406 90.212 C 179.406 90.114,179.614 89.727,179.868 89.353 C 180.122 88.979,180.382 88.464,180.446 88.209 C 180.510 87.954,180.710 87.666,180.890 87.570 C 181.071 87.473,181.273 87.102,181.340 86.745 C 181.407 86.388,181.617 85.987,181.807 85.854 C 181.997 85.721,182.242 85.280,182.352 84.875 C 182.461 84.469,182.720 84.032,182.927 83.904 C 183.136 83.774,183.302 83.472,183.302 83.222 C 183.302 82.976,183.500 82.538,183.741 82.250 C 183.982 81.961,184.242 81.517,184.319 81.262 C 184.395 81.006,184.606 80.631,184.787 80.427 C 184.967 80.223,185.176 79.847,185.250 79.592 C 185.325 79.337,185.534 78.961,185.714 78.757 C 185.895 78.553,186.104 78.177,186.178 77.922 C 186.253 77.667,186.461 77.291,186.640 77.087 C 186.820 76.883,187.068 76.402,187.191 76.019 C 187.313 75.636,187.574 75.236,187.770 75.131 C 187.969 75.025,188.126 74.745,188.126 74.498 C 188.126 74.254,188.323 73.818,188.565 73.530 C 188.806 73.242,189.066 72.797,189.143 72.542 C 189.219 72.287,189.430 71.911,189.610 71.707 C 189.791 71.503,190.000 71.127,190.074 70.872 C 190.149 70.617,190.357 70.241,190.538 70.037 C 190.719 69.833,190.927 69.457,191.002 69.202 C 191.076 68.947,191.304 68.556,191.508 68.333 C 191.717 68.105,191.922 67.556,191.975 67.080 L 192.071 66.234 186.308 66.234 C 180.401 66.234,179.963 66.285,179.963 66.975 C 179.963 67.062,179.767 67.369,179.527 67.657 C 179.288 67.946,179.035 68.414,178.966 68.698 C 178.896 68.982,178.675 69.356,178.474 69.528 C 178.272 69.700,178.108 69.977,178.108 70.143 C 178.108 70.309,177.859 70.812,177.554 71.262 C 177.250 71.711,177.000 72.179,176.998 72.303 C 176.996 72.426,176.839 72.677,176.648 72.859 C 176.457 73.042,176.199 73.510,176.073 73.900 C 175.947 74.290,175.732 74.651,175.596 74.704 C 175.459 74.756,175.293 75.045,175.228 75.345 C 175.162 75.645,174.919 76.118,174.688 76.396 C 174.457 76.674,174.212 77.129,174.145 77.407 C 174.077 77.685,173.867 78.060,173.677 78.242 C 173.488 78.423,173.230 78.890,173.104 79.280 C 172.978 79.670,172.766 80.031,172.633 80.082 C 172.499 80.133,172.334 80.399,172.266 80.672 C 172.199 80.945,171.993 81.336,171.809 81.540 C 171.625 81.744,171.374 82.223,171.252 82.605 C 171.130 82.987,170.923 83.363,170.792 83.440 C 170.661 83.517,170.455 83.884,170.335 84.254 C 170.214 84.624,169.952 85.076,169.752 85.257 C 169.552 85.438,169.388 85.734,169.388 85.914 C 169.388 86.095,169.190 86.478,168.949 86.767 C 168.708 87.055,168.452 87.479,168.380 87.708 C 168.054 88.750,166.393 88.036,165.963 86.669 C 165.887 86.429,165.625 85.937,165.380 85.576 C 165.135 85.216,164.935 84.820,164.935 84.697 C 164.935 84.574,164.726 84.231,164.471 83.934 C 164.216 83.638,164.008 83.222,164.008 83.010 C 164.008 82.798,163.803 82.433,163.553 82.198 C 163.303 81.964,163.042 81.511,162.972 81.192 C 162.902 80.873,162.695 80.508,162.513 80.380 C 162.331 80.252,162.124 79.877,162.053 79.545 C 161.983 79.214,161.788 78.788,161.621 78.599 C 161.326 78.266,160.834 77.393,160.196 76.070 C 160.025 75.714,159.727 75.223,159.534 74.978 C 159.341 74.733,159.184 74.390,159.184 74.215 C 159.184 74.041,159.020 73.750,158.820 73.568 C 158.619 73.387,158.358 72.936,158.238 72.566 C 158.119 72.195,157.866 71.744,157.677 71.563 C 157.488 71.381,157.279 71.005,157.214 70.728 C 157.148 70.450,156.946 70.056,156.765 69.852 C 156.584 69.647,156.299 69.188,156.130 68.831 C 154.826 66.065,155.358 66.243,148.393 66.238 L 142.520 66.234 142.874 66.967 M227.365 66.437 C 227.059 66.531,225.223 66.702,223.284 66.817 C 220.395 66.987,219.652 67.088,219.168 67.379 C 218.830 67.582,217.965 67.802,217.149 67.893 C 216.364 67.982,215.669 68.133,215.606 68.229 C 215.417 68.518,214.796 68.780,213.978 68.916 C 213.553 68.986,213.065 69.199,212.894 69.388 C 212.723 69.577,212.236 69.790,211.812 69.862 C 211.387 69.934,210.931 70.148,210.798 70.339 C 210.664 70.529,210.222 70.738,209.816 70.803 C 209.408 70.869,209.002 71.062,208.910 71.235 C 208.817 71.408,208.403 71.650,207.989 71.774 C 207.574 71.899,207.236 72.082,207.236 72.182 C 207.236 72.282,207.006 72.465,206.725 72.589 C 206.445 72.713,206.002 73.024,205.741 73.281 C 205.480 73.538,204.989 73.956,204.650 74.212 C 203.411 75.143,200.371 77.986,200.371 78.214 C 200.371 78.342,199.401 79.533,198.704 80.261 C 198.498 80.476,198.330 80.760,198.330 80.893 C 198.330 81.025,198.122 81.407,197.866 81.742 C 197.611 82.076,197.403 82.469,197.403 82.615 C 197.403 82.760,197.203 83.174,196.959 83.534 C 196.714 83.894,196.457 84.529,196.387 84.946 C 196.316 85.362,196.099 85.907,195.903 86.155 C 195.652 86.475,195.495 87.124,195.364 88.383 C 195.263 89.360,195.098 90.516,194.997 90.952 C 194.766 91.954,194.763 93.383,194.990 94.341 C 195.087 94.750,195.256 95.952,195.366 97.014 C 195.508 98.388,195.666 99.071,195.912 99.385 C 196.103 99.627,196.316 100.178,196.386 100.608 C 196.457 101.039,196.661 101.558,196.840 101.763 C 197.019 101.967,197.258 102.409,197.370 102.745 C 197.483 103.082,197.745 103.573,197.953 103.837 C 198.160 104.101,198.330 104.419,198.330 104.543 C 198.330 104.667,198.560 105.028,198.840 105.345 C 199.121 105.662,199.851 106.535,200.462 107.285 C 201.434 108.477,205.987 112.581,206.561 112.783 C 206.677 112.823,207.008 113.053,207.296 113.293 C 207.585 113.533,207.933 113.729,208.071 113.729 C 208.208 113.729,208.556 113.927,208.845 114.169 C 209.133 114.411,209.632 114.666,209.953 114.736 C 210.274 114.806,210.678 115.019,210.851 115.210 C 211.023 115.401,211.489 115.612,211.885 115.679 C 212.281 115.746,212.805 115.958,213.049 116.150 C 213.293 116.342,213.900 116.590,214.397 116.702 C 214.894 116.813,215.441 117.032,215.614 117.188 C 215.787 117.345,216.560 117.551,217.339 117.647 C 218.115 117.744,219.060 117.977,219.440 118.166 C 221.393 119.138,235.378 119.139,237.331 118.167 C 237.709 117.978,238.701 117.739,239.535 117.634 C 240.484 117.515,241.128 117.340,241.258 117.165 C 241.372 117.011,241.865 116.812,242.354 116.722 C 242.842 116.631,243.400 116.414,243.593 116.240 C 243.786 116.065,244.305 115.841,244.746 115.742 C 245.187 115.643,245.714 115.414,245.918 115.234 C 246.122 115.053,246.636 114.807,247.059 114.687 C 247.482 114.566,247.872 114.354,247.925 114.215 C 247.978 114.076,248.253 113.904,248.535 113.834 C 248.817 113.763,249.289 113.502,249.584 113.253 C 249.880 113.005,250.238 112.801,250.381 112.801 C 250.524 112.801,250.778 112.593,250.945 112.338 C 251.112 112.083,251.332 111.874,251.434 111.874 C 251.645 111.874,251.785 111.744,254.789 108.762 C 257.465 106.105,257.699 105.852,257.699 105.626 C 257.699 105.528,257.900 105.273,258.145 105.060 C 258.390 104.847,258.647 104.415,258.716 104.099 C 258.785 103.784,258.995 103.418,259.182 103.287 C 259.370 103.156,259.580 102.744,259.650 102.371 C 259.720 101.999,259.932 101.554,260.122 101.382 C 260.313 101.209,260.518 100.688,260.584 100.211 C 260.648 99.738,260.871 99.110,261.080 98.815 C 261.977 97.547,261.978 88.157,261.081 86.642 C 260.869 86.285,260.640 85.602,260.570 85.124 C 260.501 84.646,260.332 84.212,260.195 84.160 C 260.058 84.107,259.843 83.705,259.717 83.266 C 259.591 82.827,259.337 82.319,259.152 82.138 C 258.968 81.956,258.762 81.581,258.694 81.303 C 258.626 81.025,258.414 80.631,258.223 80.427 C 258.032 80.223,257.377 79.456,256.769 78.723 C 255.585 77.296,253.540 75.299,251.962 74.026 C 251.645 73.771,251.205 73.374,250.984 73.145 C 250.763 72.915,250.501 72.727,250.401 72.727 C 250.302 72.727,249.947 72.519,249.612 72.263 C 249.278 72.008,248.922 71.800,248.821 71.800 C 248.720 71.800,248.401 71.602,248.113 71.360 C 247.824 71.118,247.325 70.863,247.004 70.793 C 246.683 70.723,246.279 70.509,246.107 70.318 C 245.934 70.128,245.468 69.917,245.072 69.850 C 244.676 69.783,244.153 69.571,243.908 69.379 C 243.664 69.187,243.058 68.938,242.561 68.827 C 242.064 68.716,241.516 68.497,241.343 68.341 C 241.168 68.182,240.389 67.977,239.583 67.877 C 238.787 67.778,237.884 67.543,237.575 67.355 C 237.127 67.082,236.448 66.986,234.230 66.883 C 232.699 66.811,230.779 66.638,229.963 66.497 C 228.273 66.205,228.130 66.202,227.365 66.437 M272.851 66.357 C 272.696 66.512,272.685 118.599,272.840 119.002 C 272.942 119.267,275.337 119.295,298.068 119.295 L 323.184 119.295 323.286 118.878 C 323.343 118.648,323.365 116.665,323.336 114.471 L 323.284 110.482 303.750 110.390 C 286.657 110.308,284.195 110.262,284.041 110.019 C 283.932 109.847,283.864 101.585,283.862 88.567 C 283.860 76.921,283.807 67.132,283.743 66.814 L 283.627 66.234 278.301 66.234 C 275.371 66.234,272.919 66.289,272.851 66.357 M334.091 66.434 C 333.784 66.613,333.766 68.060,333.766 92.676 L 333.766 118.729 334.314 119.012 C 335.306 119.525,344.185 119.422,344.905 118.889 L 345.455 118.483 345.455 92.762 L 345.455 67.041 345.025 66.637 C 344.544 66.186,334.828 66.005,334.091 66.434 M233.625 75.577 C 233.929 75.783,234.706 75.986,235.552 76.081 C 236.406 76.177,237.102 76.360,237.303 76.541 C 237.486 76.707,237.997 76.923,238.438 77.022 C 238.879 77.122,239.406 77.350,239.610 77.531 C 239.814 77.711,240.336 77.960,240.770 78.084 C 241.204 78.207,241.558 78.390,241.558 78.491 C 241.558 78.591,241.760 78.750,242.006 78.844 C 243.214 79.303,247.006 82.847,247.561 84.036 C 247.678 84.286,247.962 84.679,248.191 84.909 C 248.421 85.138,248.609 85.429,248.609 85.555 C 248.609 85.680,248.783 85.968,248.995 86.195 C 249.208 86.421,249.463 86.968,249.563 87.410 C 249.662 87.852,249.884 88.370,250.057 88.560 C 250.330 88.862,250.371 89.396,250.371 92.672 C 250.371 95.947,250.330 96.481,250.057 96.783 C 249.884 96.974,249.662 97.489,249.564 97.929 C 249.465 98.368,249.252 98.873,249.091 99.051 C 248.930 99.229,248.705 99.642,248.591 99.970 C 248.477 100.297,248.226 100.649,248.032 100.753 C 247.839 100.856,247.681 101.027,247.681 101.133 C 247.681 101.625,243.763 105.751,243.295 105.751 C 243.163 105.751,242.966 105.918,242.857 106.122 C 242.748 106.327,242.548 106.494,242.412 106.494 C 242.276 106.494,241.949 106.663,241.685 106.871 C 241.421 107.079,240.930 107.343,240.593 107.457 C 240.257 107.572,239.785 107.817,239.545 108.003 C 239.305 108.188,238.804 108.391,238.432 108.454 C 238.060 108.517,237.523 108.733,237.239 108.932 C 236.920 109.157,236.210 109.353,235.377 109.447 C 234.636 109.530,233.741 109.755,233.388 109.947 C 232.442 110.463,224.288 110.479,223.507 109.968 C 223.231 109.786,222.369 109.558,221.592 109.459 C 220.815 109.361,219.918 109.122,219.598 108.930 C 219.278 108.737,218.715 108.526,218.346 108.461 C 217.978 108.395,217.534 108.184,217.360 107.992 C 217.187 107.800,216.753 107.589,216.397 107.522 C 216.041 107.455,215.607 107.259,215.432 107.086 C 215.258 106.913,214.875 106.664,214.581 106.531 C 213.057 105.847,208.349 100.983,208.349 100.094 C 208.349 99.986,208.184 99.756,207.983 99.584 C 207.782 99.411,207.568 99.038,207.508 98.754 C 207.448 98.470,207.319 98.112,207.221 97.959 C 206.687 97.125,206.522 96.368,206.413 94.249 C 206.252 91.123,206.500 88.437,207.000 87.889 C 207.206 87.662,207.431 87.166,207.498 86.786 C 207.566 86.407,207.764 85.989,207.939 85.859 C 208.113 85.728,208.401 85.308,208.578 84.926 C 208.755 84.543,208.979 84.230,209.075 84.230 C 209.172 84.230,209.305 84.062,209.370 83.856 C 209.626 83.051,213.819 79.127,214.657 78.910 C 214.912 78.844,215.225 78.643,215.353 78.463 C 215.480 78.284,215.856 78.080,216.188 78.010 C 216.519 77.939,216.966 77.721,217.181 77.524 C 217.396 77.327,217.897 77.113,218.294 77.049 C 218.692 76.985,219.225 76.780,219.481 76.593 C 219.757 76.390,220.534 76.179,221.408 76.069 C 222.213 75.967,222.986 75.789,223.125 75.673 C 223.908 75.024,232.690 74.943,233.625 75.577 " stroke="none" fill="#ebb30e" fill-rule="evenodd"></path><path id="path1" d="M0.000 92.764 L 0.000 185.529 200.000 185.529 L 400.000 185.529 400.000 92.764 L 400.000 0.000 200.000 0.000 L 0.000 0.000 0.000 92.764 M80.241 39.037 C 81.058 39.197,83.083 39.404,84.742 39.496 C 86.906 39.616,87.882 39.743,88.192 39.947 C 88.430 40.103,89.095 40.317,89.669 40.423 C 90.244 40.530,90.969 40.748,91.280 40.909 C 91.591 41.070,92.312 41.288,92.881 41.393 C 93.450 41.498,94.220 41.738,94.592 41.927 C 94.965 42.115,95.638 42.328,96.088 42.399 C 96.539 42.471,97.282 42.728,97.739 42.971 C 98.197 43.215,98.671 43.414,98.793 43.414 C 98.915 43.414,99.162 43.576,99.341 43.774 C 99.521 43.973,99.905 44.187,100.196 44.251 C 100.487 44.315,100.918 44.519,101.154 44.705 C 101.390 44.890,101.874 45.181,102.229 45.349 C 102.585 45.518,103.293 45.899,103.803 46.195 C 104.314 46.492,105.105 46.911,105.562 47.126 C 106.019 47.342,106.437 47.576,106.490 47.647 C 106.543 47.717,106.920 48.002,107.328 48.279 C 108.417 49.019,111.179 51.337,111.363 51.665 C 111.450 51.821,111.618 51.948,111.737 51.948 C 111.856 51.948,112.123 52.112,112.331 52.313 C 112.539 52.514,113.320 53.192,114.067 53.818 C 114.815 54.445,115.676 55.303,115.982 55.725 C 116.700 56.718,116.779 56.743,119.261 56.759 C 122.580 56.779,122.942 57.401,120.852 59.491 C 119.809 60.535,119.763 60.300,121.427 62.430 C 121.756 62.851,122.254 63.740,122.793 64.868 C 122.995 65.291,123.245 65.688,123.348 65.752 C 123.451 65.816,123.635 66.180,123.757 66.561 C 123.879 66.942,124.126 67.421,124.306 67.625 C 124.486 67.829,124.694 68.205,124.768 68.460 C 124.843 68.715,125.047 69.091,125.223 69.295 C 125.399 69.499,125.656 69.958,125.795 70.315 C 125.933 70.673,126.189 71.173,126.364 71.429 C 126.539 71.684,126.737 72.226,126.805 72.635 C 126.873 73.043,127.051 73.566,127.201 73.798 C 127.350 74.030,127.560 74.696,127.668 75.277 C 127.775 75.858,128.011 76.628,128.193 76.989 C 128.374 77.349,128.578 78.026,128.647 78.494 C 128.715 78.961,128.937 79.655,129.140 80.034 C 129.390 80.500,129.571 81.370,129.695 82.709 C 129.797 83.801,130.010 85.320,130.169 86.085 C 130.764 88.949,130.685 98.061,130.049 99.958 C 129.956 100.236,129.802 101.405,129.706 102.555 C 129.585 104.020,129.421 104.859,129.160 105.361 C 128.954 105.755,128.726 106.481,128.652 106.975 C 128.578 107.468,128.322 108.293,128.082 108.806 C 127.843 109.320,127.644 109.991,127.640 110.297 C 127.636 110.603,127.427 111.271,127.176 111.781 C 126.925 112.291,126.719 112.927,126.718 113.194 C 126.717 113.461,126.554 113.885,126.356 114.137 C 126.158 114.389,125.857 114.943,125.686 115.368 C 125.516 115.793,125.309 116.141,125.226 116.141 C 125.143 116.141,124.975 116.454,124.852 116.837 C 124.730 117.219,124.483 117.699,124.304 117.904 C 124.125 118.108,123.879 118.588,123.756 118.970 C 123.634 119.353,123.467 119.666,123.387 119.666 C 123.306 119.666,123.058 120.063,122.835 120.547 C 122.294 121.723,121.872 122.458,121.376 123.089 C 120.711 123.935,120.841 124.303,122.356 125.863 C 124.782 128.360,124.435 128.757,119.831 128.757 C 116.501 128.757,116.884 128.613,115.361 130.438 C 114.983 130.891,114.289 131.554,113.819 131.911 C 113.348 132.268,112.719 132.769,112.421 133.024 C 112.122 133.279,111.626 133.697,111.317 133.952 C 111.009 134.207,110.520 134.624,110.232 134.879 C 109.944 135.135,109.391 135.594,109.004 135.900 C 108.617 136.206,108.028 136.686,107.697 136.967 C 107.365 137.247,107.011 137.477,106.909 137.477 C 106.808 137.477,106.620 137.603,106.492 137.757 C 106.364 137.912,105.915 138.202,105.495 138.402 C 105.075 138.602,104.606 138.850,104.453 138.952 C 104.300 139.053,103.840 139.302,103.432 139.504 C 102.248 140.090,101.275 140.610,100.278 141.189 C 99.768 141.485,99.058 141.858,98.701 142.017 C 98.344 142.177,97.718 142.470,97.310 142.669 C 96.902 142.867,96.127 143.116,95.588 143.221 C 95.050 143.326,94.424 143.531,94.197 143.677 C 93.970 143.823,93.290 144.032,92.686 144.141 C 92.082 144.251,91.406 144.459,91.184 144.604 C 90.963 144.750,90.312 144.955,89.737 145.062 C 89.162 145.168,88.431 145.390,88.112 145.554 C 87.699 145.768,86.645 145.904,84.444 146.028 C 82.745 146.123,80.728 146.320,79.963 146.466 C 77.282 146.975,76.615 146.990,74.295 146.591 C 73.076 146.381,70.668 146.125,68.945 146.022 C 66.795 145.894,65.684 145.751,65.403 145.567 C 65.178 145.419,64.523 145.212,63.948 145.105 C 63.374 144.999,62.649 144.781,62.338 144.620 C 62.026 144.459,61.306 144.241,60.737 144.136 C 60.168 144.031,59.398 143.790,59.025 143.602 C 58.653 143.414,57.973 143.202,57.514 143.132 C 57.055 143.061,56.429 142.855,56.122 142.674 C 55.816 142.494,55.253 142.245,54.870 142.123 C 54.487 142.001,54.174 141.835,54.174 141.754 C 54.174 141.674,53.778 141.426,53.293 141.204 C 52.808 140.982,51.994 140.558,51.484 140.262 C 50.974 139.965,50.183 139.546,49.725 139.330 C 49.268 139.114,48.851 138.876,48.798 138.800 C 48.745 138.724,48.409 138.546,48.052 138.406 C 47.695 138.265,47.172 137.977,46.891 137.767 C 45.353 136.616,44.024 135.546,43.321 134.892 C 43.117 134.702,42.032 133.818,40.909 132.927 C 39.787 132.036,38.576 130.968,38.219 130.553 C 37.862 130.138,37.346 129.564,37.074 129.278 L 36.578 128.757 33.430 128.757 C 28.829 128.757,28.481 128.214,31.327 125.477 L 32.717 124.140 32.261 123.434 C 32.011 123.045,31.699 122.519,31.568 122.263 C 31.437 122.008,31.085 121.382,30.786 120.872 C 30.487 120.362,30.032 119.527,29.773 119.017 C 29.515 118.506,29.076 117.686,28.798 117.192 C 27.499 114.887,26.935 113.745,26.807 113.162 C 26.730 112.814,26.553 112.354,26.413 112.140 C 26.273 111.927,26.070 111.270,25.961 110.681 C 25.852 110.091,25.609 109.305,25.420 108.933 C 25.232 108.561,25.019 107.880,24.947 107.421 C 24.875 106.962,24.664 106.286,24.479 105.920 C 24.293 105.554,24.011 104.385,23.852 103.323 C 23.692 102.260,23.484 100.932,23.388 100.371 C 22.809 96.977,22.808 88.485,23.385 85.158 C 23.482 84.596,23.692 83.261,23.850 82.189 C 24.009 81.118,24.291 79.945,24.477 79.583 C 24.663 79.221,24.875 78.554,24.947 78.099 C 25.019 77.645,25.232 76.968,25.420 76.596 C 25.609 76.224,25.852 75.437,25.961 74.848 C 26.070 74.259,26.270 73.603,26.407 73.391 C 26.544 73.179,26.759 72.589,26.885 72.080 C 27.011 71.572,27.213 71.039,27.333 70.896 C 27.568 70.616,28.129 69.587,28.741 68.309 C 28.952 67.869,29.251 67.383,29.405 67.229 C 29.559 67.075,29.685 66.842,29.685 66.710 C 29.685 66.579,29.885 66.176,30.130 65.815 C 30.375 65.454,30.637 64.962,30.712 64.722 C 30.787 64.482,31.046 64.050,31.287 63.761 C 31.528 63.473,31.725 63.132,31.725 63.003 C 31.725 62.765,33.003 60.997,33.256 60.884 C 33.523 60.766,33.392 60.308,33.037 60.118 C 32.840 60.013,32.625 59.759,32.560 59.555 C 32.496 59.351,32.338 59.184,32.210 59.184 C 31.901 59.184,30.952 57.721,31.023 57.354 C 31.105 56.925,31.765 56.811,34.279 56.790 L 36.555 56.772 37.062 56.204 C 38.678 54.395,39.851 53.321,42.120 51.577 C 42.930 50.954,43.813 50.203,45.300 48.869 C 45.994 48.246,48.006 47.016,49.533 46.281 C 49.888 46.110,50.380 45.812,50.625 45.620 C 50.870 45.427,51.220 45.269,51.402 45.269 C 51.585 45.269,51.970 45.072,52.258 44.831 C 52.547 44.589,52.992 44.329,53.247 44.252 C 53.502 44.175,53.836 44.008,53.989 43.881 C 54.533 43.431,56.694 42.508,57.662 42.313 C 58.203 42.204,58.871 41.999,59.147 41.858 C 59.422 41.716,60.145 41.498,60.753 41.373 C 61.361 41.247,62.034 41.030,62.248 40.890 C 62.462 40.749,63.092 40.549,63.647 40.445 C 64.202 40.340,64.948 40.117,65.305 39.949 C 65.755 39.736,66.801 39.597,68.737 39.493 C 71.032 39.369,73.946 39.007,75.325 38.675 C 75.888 38.540,78.800 38.754,80.241 39.037 M155.134 65.742 C 155.305 65.824,155.572 66.212,155.729 66.603 C 155.886 66.995,156.099 67.368,156.202 67.432 C 156.306 67.496,156.562 67.899,156.773 68.329 C 157.535 69.882,157.928 70.599,158.168 70.872 C 158.303 71.025,158.468 71.374,158.537 71.647 C 158.605 71.920,158.817 72.285,159.008 72.458 C 159.199 72.631,159.452 73.075,159.571 73.445 C 159.689 73.816,159.933 74.286,160.113 74.490 C 160.293 74.694,160.501 75.070,160.575 75.325 C 160.650 75.580,160.858 75.955,161.037 76.160 C 161.217 76.364,161.465 76.844,161.587 77.226 C 161.710 77.609,161.878 77.922,161.961 77.922 C 162.044 77.922,162.253 78.235,162.426 78.618 C 162.600 79.000,163.022 79.814,163.365 80.427 C 163.707 81.039,164.164 81.874,164.380 82.282 C 164.596 82.690,165.017 83.442,165.317 83.952 C 165.616 84.462,166.040 85.255,166.259 85.714 C 166.478 86.173,166.730 86.578,166.820 86.612 C 166.910 86.647,167.120 86.939,167.287 87.261 L 167.590 87.847 167.942 87.018 C 168.136 86.561,168.368 86.142,168.459 86.086 C 168.549 86.031,168.800 85.611,169.016 85.154 C 169.572 83.981,170.076 83.063,170.312 82.794 C 170.422 82.667,170.674 82.187,170.871 81.727 C 171.069 81.267,171.303 80.891,171.393 80.891 C 171.482 80.891,171.651 80.570,171.769 80.179 C 171.886 79.787,172.150 79.315,172.355 79.129 C 172.560 78.944,172.727 78.649,172.727 78.475 C 172.727 78.300,172.896 77.943,173.103 77.680 C 173.310 77.417,173.610 76.925,173.769 76.588 C 173.928 76.250,174.299 75.557,174.594 75.046 C 174.889 74.536,175.351 73.680,175.620 73.145 C 175.890 72.609,176.167 72.171,176.237 72.171 C 176.306 72.171,176.474 71.858,176.608 71.475 C 176.743 71.092,177.001 70.612,177.181 70.408 C 177.361 70.204,177.569 69.828,177.644 69.573 C 177.718 69.318,177.927 68.942,178.108 68.738 C 178.288 68.534,178.499 68.159,178.576 67.904 C 178.653 67.648,178.875 67.231,179.069 66.976 C 179.263 66.721,179.578 66.303,179.769 66.048 L 180.115 65.584 185.837 65.529 C 193.064 65.458,193.787 65.595,193.076 66.898 C 192.913 67.196,192.606 67.774,192.392 68.182 C 192.178 68.590,191.761 69.341,191.466 69.852 C 191.170 70.362,190.752 71.153,190.536 71.610 C 190.320 72.068,190.077 72.485,189.996 72.538 C 189.915 72.591,189.666 73.010,189.444 73.469 C 189.221 73.929,188.796 74.722,188.499 75.232 C 188.203 75.742,187.784 76.494,187.570 76.902 C 187.355 77.310,186.937 78.061,186.642 78.571 C 186.346 79.082,185.928 79.873,185.712 80.330 C 185.496 80.787,185.253 81.205,185.172 81.258 C 185.091 81.311,184.843 81.730,184.620 82.189 C 184.397 82.648,183.972 83.442,183.676 83.952 C 183.379 84.462,182.960 85.213,182.746 85.622 C 182.531 86.030,182.114 86.781,181.818 87.291 C 181.523 87.801,181.104 88.593,180.888 89.050 C 180.673 89.507,180.430 89.925,180.349 89.978 C 180.267 90.031,180.019 90.450,179.796 90.909 C 179.573 91.368,179.149 92.161,178.852 92.672 C 178.555 93.182,178.137 93.933,177.922 94.341 C 177.707 94.750,177.291 95.501,176.996 96.011 C 176.702 96.521,176.247 97.356,175.985 97.866 C 175.723 98.377,175.264 99.212,174.966 99.722 C 174.667 100.232,174.334 100.843,174.224 101.079 C 174.092 101.365,174.026 104.439,174.026 110.268 C 174.026 117.895,173.989 119.080,173.737 119.439 C 173.344 120.001,161.847 120.099,161.386 119.545 C 161.181 119.298,161.114 117.484,161.039 110.195 C 160.959 102.419,160.906 101.103,160.661 100.808 C 160.503 100.619,160.228 100.172,160.048 99.814 C 159.869 99.457,159.596 98.915,159.443 98.609 C 159.290 98.302,159.083 97.927,158.984 97.774 C 158.885 97.621,158.628 97.126,158.414 96.674 C 158.200 96.223,157.872 95.690,157.686 95.490 C 157.499 95.290,157.296 94.893,157.233 94.607 C 157.170 94.322,156.998 93.988,156.850 93.866 C 156.703 93.743,156.413 93.299,156.206 92.879 C 155.458 91.355,155.059 90.625,154.826 90.353 C 154.696 90.199,154.528 89.865,154.453 89.610 C 154.378 89.355,154.169 88.980,153.989 88.776 C 153.808 88.571,153.598 88.196,153.521 87.941 C 153.444 87.686,153.191 87.249,152.959 86.971 C 152.726 86.693,152.482 86.219,152.416 85.917 C 152.349 85.616,152.174 85.269,152.027 85.146 C 151.879 85.023,151.592 84.579,151.389 84.159 C 151.185 83.739,150.776 82.978,150.479 82.468 C 150.182 81.957,149.809 81.264,149.650 80.926 C 149.491 80.588,149.191 80.097,148.985 79.834 C 148.778 79.571,148.609 79.213,148.609 79.039 C 148.609 78.864,148.441 78.570,148.236 78.384 C 148.031 78.199,147.767 77.727,147.650 77.335 C 147.533 76.944,147.365 76.623,147.278 76.623 C 147.191 76.623,146.912 76.185,146.657 75.649 C 146.403 75.114,145.949 74.258,145.649 73.748 C 145.349 73.237,144.964 72.529,144.795 72.174 C 144.625 71.818,144.328 71.327,144.135 71.082 C 143.943 70.837,143.785 70.494,143.785 70.319 C 143.785 70.145,143.621 69.854,143.421 69.672 C 143.220 69.491,142.958 69.040,142.838 68.670 C 142.718 68.299,142.508 67.931,142.373 67.851 C 141.826 67.529,141.667 66.188,142.132 65.812 C 142.583 65.446,154.388 65.383,155.134 65.742 M234.816 66.120 C 235.616 66.279,236.730 66.465,237.291 66.533 C 237.853 66.601,238.687 66.802,239.147 66.979 C 239.606 67.156,240.357 67.361,240.816 67.435 C 241.276 67.508,241.921 67.723,242.251 67.913 C 242.581 68.103,243.208 68.354,243.643 68.469 C 244.078 68.585,244.559 68.787,244.712 68.918 C 244.865 69.048,245.325 69.261,245.733 69.391 C 246.141 69.521,246.667 69.776,246.901 69.958 C 247.135 70.141,247.568 70.343,247.862 70.407 C 248.157 70.472,248.501 70.649,248.627 70.802 C 248.754 70.954,249.128 71.192,249.459 71.330 C 249.790 71.468,250.227 71.735,250.430 71.923 C 250.634 72.110,251.521 72.806,252.402 73.469 C 254.952 75.390,257.912 78.554,259.027 80.551 C 259.196 80.854,259.456 81.242,259.604 81.414 C 259.752 81.585,259.970 82.012,260.087 82.363 C 260.205 82.713,260.418 83.131,260.560 83.290 C 260.702 83.450,260.917 83.949,261.037 84.399 C 261.157 84.849,261.376 85.402,261.525 85.629 C 261.673 85.855,261.878 86.573,261.980 87.223 C 262.081 87.873,262.302 88.822,262.471 89.332 C 262.895 90.617,262.892 94.708,262.467 96.011 C 262.300 96.521,262.080 97.481,261.976 98.145 C 261.873 98.808,261.620 99.681,261.414 100.086 C 261.208 100.490,261.039 100.922,261.039 101.045 C 261.039 101.541,259.179 104.916,258.539 105.581 C 258.383 105.743,258.256 105.943,258.256 106.026 C 258.256 106.524,255.621 109.308,253.247 111.319 C 250.967 113.250,250.233 113.792,249.357 114.192 C 249.004 114.354,248.670 114.550,248.615 114.629 C 248.447 114.871,245.910 116.093,245.294 116.228 C 244.974 116.299,244.712 116.423,244.712 116.504 C 244.712 116.670,243.979 116.975,243.135 117.161 C 242.829 117.228,242.450 117.399,242.292 117.542 C 242.134 117.684,241.398 117.928,240.656 118.084 C 239.915 118.240,239.136 118.459,238.927 118.571 C 238.571 118.762,235.927 119.205,232.282 119.685 C 228.907 120.130,220.791 119.518,218.182 118.621 C 217.723 118.463,216.826 118.227,216.190 118.095 C 215.554 117.964,214.837 117.728,214.596 117.571 C 214.356 117.413,213.791 117.186,213.341 117.067 C 212.891 116.947,212.398 116.742,212.245 116.611 C 212.092 116.480,211.633 116.267,211.224 116.137 C 210.816 116.008,210.291 115.752,210.056 115.570 C 209.822 115.388,209.384 115.185,209.084 115.119 C 208.784 115.053,208.490 114.921,208.431 114.824 C 208.371 114.728,207.911 114.441,207.408 114.186 C 206.905 113.931,206.494 113.641,206.494 113.540 C 206.494 113.440,206.374 113.358,206.227 113.358 C 205.232 113.358,197.774 105.900,197.774 104.905 C 197.774 104.790,197.611 104.549,197.413 104.369 C 197.215 104.190,197.001 103.807,196.937 103.519 C 196.874 103.230,196.703 102.895,196.556 102.774 C 196.410 102.652,196.172 102.153,196.026 101.664 C 195.881 101.174,195.636 100.579,195.483 100.341 C 195.329 100.102,195.110 99.388,194.997 98.753 C 194.884 98.118,194.658 97.284,194.495 96.898 C 193.900 95.487,193.991 88.976,194.616 88.223 C 194.709 88.112,194.869 87.497,194.972 86.857 C 195.075 86.217,195.330 85.417,195.539 85.079 C 195.748 84.741,195.918 84.358,195.918 84.228 C 195.918 83.840,197.247 81.181,197.521 81.020 C 197.660 80.939,197.774 80.769,197.774 80.643 C 197.774 80.265,199.579 77.986,201.006 76.565 C 204.475 73.108,206.207 71.817,209.647 70.128 C 210.515 69.702,211.612 69.152,212.087 68.907 C 212.561 68.661,213.054 68.460,213.182 68.460 C 213.310 68.460,213.841 68.261,214.361 68.017 C 214.881 67.773,215.682 67.513,216.141 67.438 C 216.600 67.364,217.218 67.179,217.514 67.028 C 217.809 66.876,218.644 66.674,219.369 66.579 C 220.094 66.483,221.275 66.279,221.993 66.124 C 224.837 65.511,231.741 65.510,234.816 66.120 M284.070 65.846 L 284.508 66.201 284.559 87.616 C 284.610 108.791,284.614 109.035,284.984 109.432 L 285.358 109.833 304.423 109.833 C 319.004 109.833,323.540 109.885,323.711 110.056 C 324.027 110.372,324.027 119.312,323.711 119.629 C 323.351 119.988,272.559 119.948,272.067 119.588 C 271.714 119.330,271.706 118.818,271.651 93.661 C 271.589 65.267,271.566 66.133,272.418 65.762 C 273.455 65.311,283.499 65.383,284.070 65.846 M345.705 65.839 C 346.076 66.147,346.188 118.804,345.819 119.493 C 345.583 119.935,333.867 120.063,333.432 119.629 C 333.100 119.297,333.110 66.176,333.442 65.903 C 334.023 65.426,345.137 65.367,345.705 65.839 M224.397 76.258 C 222.662 76.542,220.784 76.946,220.223 77.156 C 219.661 77.367,219.067 77.542,218.903 77.545 C 218.738 77.548,218.404 77.707,218.160 77.898 C 217.917 78.089,217.457 78.302,217.138 78.371 C 216.819 78.441,216.281 78.702,215.942 78.952 C 215.604 79.202,215.260 79.406,215.179 79.406 C 214.424 79.406,208.905 84.930,208.905 85.686 C 208.905 85.775,208.700 86.150,208.450 86.519 C 208.199 86.889,207.900 87.540,207.785 87.966 C 207.670 88.393,207.437 88.955,207.267 89.214 C 206.755 89.995,206.821 95.372,207.355 96.382 C 207.570 96.790,207.803 97.385,207.872 97.704 C 207.941 98.023,208.202 98.561,208.451 98.900 C 208.701 99.239,208.905 99.611,208.905 99.728 C 208.905 99.960,209.012 100.097,210.938 102.347 C 212.266 103.898,214.824 106.122,215.279 106.122 C 215.420 106.122,215.749 106.291,216.011 106.497 C 216.273 106.704,216.844 106.998,217.279 107.152 C 217.715 107.305,218.200 107.545,218.358 107.683 C 218.516 107.822,219.088 108.029,219.629 108.142 C 220.170 108.256,220.842 108.468,221.123 108.613 C 221.567 108.842,227.081 109.670,228.386 109.704 C 229.500 109.732,235.215 108.847,235.896 108.540 C 236.306 108.356,236.994 108.147,237.425 108.076 C 237.856 108.005,238.405 107.792,238.646 107.603 C 238.886 107.414,239.321 107.199,239.613 107.126 C 239.904 107.053,240.431 106.797,240.783 106.558 C 241.136 106.318,241.506 106.122,241.605 106.122 C 241.952 106.122,245.113 103.223,246.694 101.454 C 247.102 100.998,248.237 99.203,248.237 99.015 C 248.237 98.926,248.400 98.647,248.598 98.395 C 248.796 98.143,249.054 97.475,249.171 96.910 C 249.288 96.345,249.502 95.602,249.646 95.257 C 249.992 94.429,250.000 90.935,249.658 90.115 C 249.521 89.786,249.301 89.066,249.169 88.514 C 249.037 87.962,248.731 87.220,248.490 86.865 C 248.249 86.510,248.052 86.118,248.052 85.994 C 248.052 85.870,247.864 85.555,247.635 85.293 C 247.405 85.032,246.970 84.475,246.668 84.055 C 245.214 82.038,242.175 79.515,240.074 78.581 C 239.717 78.422,239.133 78.136,238.776 77.945 C 238.418 77.754,237.846 77.537,237.504 77.463 C 237.162 77.388,236.535 77.177,236.112 76.993 C 235.358 76.666,229.092 75.673,228.070 75.719 C 227.785 75.732,226.132 75.975,224.397 76.258 " stroke="none" fill="#fff" fill-rule="evenodd"></path><path id="path2" d="M34.656 57.872 C 33.661 57.930,32.758 58.076,32.637 58.197 C 32.429 58.406,62.992 89.231,63.926 89.754 C 64.434 90.039,64.656 89.847,69.937 84.559 L 74.755 79.734 74.487 79.215 C 74.117 78.501,53.817 58.220,53.183 57.931 C 52.651 57.689,38.522 57.644,34.656 57.872 M100.093 57.967 C 99.638 58.173,37.341 120.400,32.397 125.586 C 30.240 127.849,29.524 127.682,41.542 127.712 L 51.581 127.737 85.206 94.060 C 122.009 57.201,120.676 58.554,120.539 58.195 C 120.332 57.656,101.245 57.443,100.093 57.967 M69.759 113.039 C 69.057 113.484,55.473 127.034,55.473 127.289 C 55.473 127.993,121.611 127.988,122.324 127.284 C 122.501 127.110,121.543 126.095,114.179 118.661 C 111.211 115.666,108.523 113.080,108.204 112.916 C 107.682 112.646,105.790 112.617,89.017 112.622 L 70.408 112.628 69.759 113.039 " stroke="none" fill="#302f2c" fill-rule="evenodd"></path><path id="path3" d="M75.325 38.675 C 73.946 39.007,71.032 39.369,68.737 39.493 C 66.801 39.597,65.755 39.736,65.305 39.949 C 64.948 40.117,64.202 40.340,63.647 40.445 C 63.092 40.549,62.462 40.749,62.248 40.890 C 62.034 41.030,61.361 41.247,60.753 41.373 C 60.145 41.498,59.422 41.716,59.147 41.858 C 58.871 41.999,58.203 42.204,57.662 42.313 C 56.694 42.508,54.533 43.431,53.989 43.881 C 53.836 44.008,53.502 44.175,53.247 44.252 C 52.992 44.329,52.547 44.589,52.258 44.831 C 51.970 45.072,51.585 45.269,51.402 45.269 C 51.220 45.269,50.870 45.427,50.625 45.620 C 50.380 45.812,49.888 46.110,49.533 46.281 C 48.006 47.016,45.994 48.246,45.300 48.869 C 43.813 50.203,42.930 50.954,42.120 51.577 C 39.851 53.321,38.678 54.395,37.062 56.204 L 36.555 56.772 34.279 56.790 C 31.765 56.811,31.105 56.925,31.023 57.354 C 30.952 57.721,31.901 59.184,32.210 59.184 C 32.338 59.184,32.496 59.351,32.560 59.555 C 32.625 59.759,32.840 60.013,33.037 60.118 C 33.392 60.308,33.523 60.766,33.256 60.884 C 33.003 60.997,31.725 62.765,31.725 63.003 C 31.725 63.132,31.528 63.473,31.287 63.761 C 31.046 64.050,30.787 64.482,30.712 64.722 C 30.637 64.962,30.375 65.454,30.130 65.815 C 29.885 66.176,29.685 66.579,29.685 66.710 C 29.685 66.842,29.559 67.075,29.405 67.229 C 29.251 67.383,28.952 67.869,28.741 68.309 C 28.129 69.587,27.568 70.616,27.333 70.896 C 27.213 71.039,27.011 71.572,26.885 72.080 C 26.759 72.589,26.544 73.179,26.407 73.391 C 26.270 73.603,26.070 74.259,25.961 74.848 C 25.852 75.437,25.609 76.224,25.420 76.596 C 25.232 76.968,25.019 77.645,24.947 78.099 C 24.875 78.554,24.663 79.221,24.477 79.583 C 24.291 79.945,24.009 81.118,23.850 82.189 C 23.692 83.261,23.482 84.596,23.385 85.158 C 22.808 88.485,22.809 96.977,23.388 100.371 C 23.484 100.932,23.692 102.260,23.852 103.323 C 24.011 104.385,24.293 105.554,24.479 105.920 C 24.664 106.286,24.875 106.962,24.947 107.421 C 25.019 107.880,25.232 108.561,25.420 108.933 C 25.609 109.305,25.852 110.091,25.961 110.681 C 26.070 111.270,26.273 111.927,26.413 112.140 C 26.553 112.354,26.730 112.814,26.807 113.162 C 26.935 113.745,27.499 114.887,28.798 117.192 C 29.076 117.686,29.515 118.506,29.773 119.017 C 30.032 119.527,30.487 120.362,30.786 120.872 C 31.085 121.382,31.437 122.008,31.568 122.263 C 31.699 122.519,32.011 123.045,32.261 123.434 L 32.717 124.140 31.327 125.477 C 28.481 128.214,28.829 128.757,33.430 128.757 L 36.578 128.757 37.074 129.278 C 37.346 129.564,37.862 130.138,38.219 130.553 C 38.576 130.968,39.787 132.036,40.909 132.927 C 42.032 133.818,43.117 134.702,43.321 134.892 C 44.024 135.546,45.353 136.616,46.891 137.767 C 47.172 137.977,47.695 138.265,48.052 138.406 C 48.409 138.546,48.745 138.724,48.798 138.800 C 48.851 138.876,49.268 139.114,49.725 139.330 C 50.183 139.546,50.974 139.965,51.484 140.262 C 51.994 140.558,52.808 140.982,53.293 141.204 C 53.778 141.426,54.174 141.674,54.174 141.754 C 54.174 141.835,54.487 142.001,54.870 142.123 C 55.253 142.245,55.816 142.494,56.122 142.674 C 56.429 142.855,57.055 143.061,57.514 143.132 C 57.973 143.202,58.653 143.414,59.025 143.602 C 59.398 143.790,60.168 144.031,60.737 144.136 C 61.306 144.241,62.026 144.459,62.338 144.620 C 62.649 144.781,63.374 144.999,63.948 145.105 C 64.523 145.212,65.178 145.419,65.403 145.567 C 65.684 145.751,66.795 145.894,68.945 146.022 C 70.668 146.125,73.076 146.381,74.295 146.591 C 76.615 146.990,77.282 146.975,79.963 146.466 C 80.728 146.320,82.745 146.123,84.444 146.028 C 86.645 145.904,87.699 145.768,88.112 145.554 C 88.431 145.390,89.162 145.168,89.737 145.062 C 90.312 144.955,90.963 144.750,91.184 144.604 C 91.406 144.459,92.082 144.251,92.686 144.141 C 93.290 144.032,93.970 143.823,94.197 143.677 C 94.424 143.531,95.050 143.326,95.588 143.221 C 96.127 143.116,96.902 142.867,97.310 142.669 C 97.718 142.470,98.344 142.177,98.701 142.017 C 99.058 141.858,99.768 141.485,100.278 141.189 C 101.275 140.610,102.248 140.090,103.432 139.504 C 103.840 139.302,104.300 139.053,104.453 138.952 C 104.606 138.850,105.075 138.602,105.495 138.402 C 105.915 138.202,106.364 137.912,106.492 137.757 C 106.620 137.603,106.808 137.477,106.909 137.477 C 107.011 137.477,107.365 137.247,107.697 136.967 C 108.028 136.686,108.617 136.206,109.004 135.900 C 109.391 135.594,109.944 135.135,110.232 134.879 C 110.520 134.624,111.009 134.207,111.317 133.952 C 111.626 133.697,112.122 133.279,112.421 133.024 C 112.719 132.769,113.348 132.268,113.819 131.911 C 114.289 131.554,114.983 130.891,115.361 130.438 C 116.884 128.613,116.501 128.757,119.831 128.757 C 124.435 128.757,124.782 128.360,122.356 125.863 C 120.841 124.303,120.711 123.935,121.376 123.089 C 121.872 122.458,122.294 121.723,122.835 120.547 C 123.058 120.063,123.306 119.666,123.387 119.666 C 123.467 119.666,123.634 119.353,123.756 118.970 C 123.879 118.588,124.125 118.108,124.304 117.904 C 124.483 117.699,124.730 117.219,124.852 116.837 C 124.975 116.454,125.143 116.141,125.226 116.141 C 125.309 116.141,125.516 115.793,125.686 115.368 C 125.857 114.943,126.158 114.389,126.356 114.137 C 126.554 113.885,126.717 113.461,126.718 113.194 C 126.719 112.927,126.925 112.291,127.176 111.781 C 127.427 111.271,127.636 110.603,127.640 110.297 C 127.644 109.991,127.843 109.320,128.082 108.806 C 128.322 108.293,128.578 107.468,128.652 106.975 C 128.726 106.481,128.954 105.755,129.160 105.361 C 129.421 104.859,129.585 104.020,129.706 102.555 C 129.802 101.405,129.956 100.236,130.049 99.958 C 130.685 98.061,130.764 88.949,130.169 86.085 C 130.010 85.320,129.797 83.801,129.695 82.709 C 129.571 81.370,129.390 80.500,129.140 80.034 C 128.937 79.655,128.715 78.961,128.647 78.494 C 128.578 78.026,128.374 77.349,128.193 76.989 C 128.011 76.628,127.775 75.858,127.668 75.277 C 127.560 74.696,127.350 74.030,127.201 73.798 C 127.051 73.566,126.873 73.043,126.805 72.635 C 126.737 72.226,126.539 71.684,126.364 71.429 C 126.189 71.173,125.933 70.673,125.795 70.315 C 125.656 69.958,125.399 69.499,125.223 69.295 C 125.047 69.091,124.843 68.715,124.768 68.460 C 124.694 68.205,124.486 67.829,124.306 67.625 C 124.126 67.421,123.879 66.942,123.757 66.561 C 123.635 66.180,123.451 65.816,123.348 65.752 C 123.245 65.688,122.995 65.291,122.793 64.868 C 122.254 63.740,121.756 62.851,121.427 62.430 C 119.763 60.300,119.809 60.535,120.852 59.491 C 122.942 57.401,122.580 56.779,119.261 56.759 C 116.779 56.743,116.700 56.718,115.982 55.725 C 115.676 55.303,114.815 54.445,114.067 53.818 C 113.320 53.192,112.539 52.514,112.331 52.313 C 112.123 52.112,111.856 51.948,111.737 51.948 C 111.618 51.948,111.450 51.821,111.363 51.665 C 111.179 51.337,108.417 49.019,107.328 48.279 C 106.920 48.002,106.543 47.717,106.490 47.647 C 106.437 47.576,106.019 47.342,105.562 47.126 C 105.105 46.911,104.314 46.492,103.803 46.195 C 103.293 45.899,102.585 45.518,102.229 45.349 C 101.874 45.181,101.390 44.890,101.154 44.705 C 100.918 44.519,100.487 44.315,100.196 44.251 C 99.905 44.187,99.521 43.973,99.341 43.774 C 99.162 43.576,98.915 43.414,98.793 43.414 C 98.671 43.414,98.197 43.215,97.739 42.971 C 97.282 42.728,96.539 42.471,96.088 42.399 C 95.638 42.328,94.965 42.115,94.592 41.927 C 94.220 41.738,93.450 41.498,92.881 41.393 C 92.312 41.288,91.591 41.070,91.280 40.909 C 90.969 40.748,90.244 40.530,89.669 40.423 C 89.095 40.317,88.430 40.103,88.192 39.947 C 87.882 39.743,86.906 39.616,84.742 39.496 C 83.083 39.404,81.058 39.197,80.241 39.037 C 78.800 38.754,75.888 38.540,75.325 38.675 M81.423 39.879 C 83.454 39.967,85.275 40.124,85.470 40.228 C 85.665 40.333,86.660 40.543,87.681 40.695 C 88.719 40.849,89.819 41.132,90.177 41.337 C 90.529 41.538,91.268 41.758,91.821 41.826 C 92.373 41.894,93.021 42.105,93.261 42.293 C 93.506 42.486,94.180 42.692,94.805 42.764 C 95.423 42.836,96.104 43.043,96.343 43.231 C 96.580 43.417,97.102 43.628,97.505 43.701 C 97.908 43.774,98.386 43.989,98.567 44.178 C 98.749 44.368,99.124 44.578,99.402 44.646 C 99.680 44.713,100.135 44.958,100.413 45.189 C 100.691 45.420,101.177 45.665,101.492 45.735 C 101.808 45.804,102.111 45.977,102.165 46.120 C 102.220 46.262,102.611 46.480,103.034 46.604 C 103.457 46.729,103.906 46.970,104.031 47.142 C 104.156 47.313,104.484 47.510,104.761 47.579 C 105.037 47.648,105.504 47.908,105.800 48.157 C 106.095 48.405,106.431 48.609,106.548 48.609 C 106.664 48.609,106.929 48.776,107.136 48.980 C 107.344 49.184,108.140 49.850,108.905 50.459 C 109.671 51.069,110.527 51.758,110.809 51.990 C 111.090 52.222,111.573 52.621,111.883 52.876 C 112.192 53.131,113.297 54.153,114.339 55.147 L 116.234 56.955 118.748 56.956 C 122.209 56.958,122.429 57.240,120.586 59.314 C 119.379 60.672,119.293 61.075,120.036 61.874 C 120.226 62.078,120.589 62.471,120.842 62.747 C 121.096 63.023,121.359 63.507,121.429 63.822 C 121.498 64.137,121.756 64.612,122.002 64.878 C 122.248 65.143,122.449 65.509,122.449 65.690 C 122.449 65.871,122.658 66.268,122.913 66.571 C 123.168 66.874,123.377 67.250,123.377 67.406 C 123.377 67.562,123.574 67.926,123.815 68.214 C 124.056 68.502,124.318 68.947,124.398 69.202 C 124.477 69.457,124.739 69.957,124.980 70.312 C 125.221 70.667,125.417 71.079,125.417 71.228 C 125.417 71.376,125.579 71.670,125.777 71.880 C 125.989 72.106,126.214 72.746,126.325 73.434 C 126.429 74.077,126.684 74.880,126.893 75.218 C 127.102 75.556,127.273 76.123,127.273 76.478 C 127.273 76.834,127.468 77.492,127.706 77.941 C 127.944 78.390,128.193 79.214,128.259 79.773 C 128.325 80.332,128.532 81.000,128.721 81.257 C 129.004 81.646,129.097 82.327,129.262 85.250 C 129.390 87.524,129.566 89.072,129.756 89.610 C 130.163 90.764,130.169 94.629,129.765 95.756 C 129.578 96.279,129.401 97.856,129.268 100.186 C 129.097 103.190,129.004 103.883,128.720 104.271 C 128.532 104.529,128.330 105.197,128.271 105.756 C 128.211 106.315,128.000 107.004,127.801 107.287 C 127.602 107.571,127.391 108.238,127.332 108.771 C 127.273 109.304,127.053 110.026,126.842 110.376 C 126.632 110.726,126.400 111.454,126.326 111.994 C 126.253 112.534,126.019 113.220,125.805 113.520 C 125.592 113.820,125.416 114.177,125.414 114.314 C 125.412 114.452,125.162 114.931,124.857 115.380 C 124.553 115.829,124.304 116.264,124.304 116.346 C 124.304 116.428,124.096 116.803,123.840 117.179 C 123.585 117.555,123.377 117.985,123.377 118.135 C 123.377 118.284,123.168 118.655,122.913 118.958 C 122.658 119.261,122.449 119.657,122.449 119.839 C 122.449 120.020,122.248 120.386,122.002 120.651 C 121.756 120.916,121.498 121.389,121.430 121.700 C 121.362 122.012,121.161 122.344,120.985 122.438 C 120.808 122.533,120.566 122.926,120.448 123.313 C 120.208 124.093,120.166 124.025,122.100 125.954 C 124.268 128.117,124.037 128.386,120.012 128.386 C 116.334 128.386,116.302 128.396,114.699 130.006 C 113.216 131.496,111.487 133.024,111.285 133.024 C 111.205 133.024,111.004 133.233,110.836 133.488 C 110.669 133.743,110.449 133.952,110.346 133.952 C 110.244 133.952,109.857 134.207,109.486 134.519 C 109.116 134.830,108.534 135.311,108.194 135.585 C 107.854 135.860,107.385 136.273,107.152 136.503 C 106.920 136.732,106.641 136.920,106.533 136.920 C 106.425 136.920,106.095 137.124,105.800 137.372 C 105.504 137.620,105.045 137.878,104.779 137.945 C 104.512 138.012,104.152 138.225,103.977 138.418 C 103.802 138.610,103.377 138.821,103.031 138.886 C 102.686 138.951,102.300 139.148,102.175 139.324 C 102.050 139.499,101.703 139.704,101.404 139.778 C 101.105 139.852,100.618 140.116,100.323 140.365 C 100.028 140.613,99.632 140.816,99.443 140.816 C 99.255 140.816,98.853 141.025,98.550 141.280 C 98.246 141.535,97.835 141.744,97.635 141.744 C 97.436 141.744,96.893 141.946,96.430 142.192 C 95.966 142.438,95.118 142.699,94.544 142.770 C 93.971 142.842,93.307 143.053,93.070 143.239 C 92.833 143.426,92.188 143.633,91.635 143.699 C 91.083 143.766,90.402 143.981,90.122 144.178 C 89.783 144.417,88.947 144.624,87.608 144.800 C 86.505 144.946,85.356 145.159,85.055 145.275 C 83.407 145.910,70.127 145.848,68.054 145.196 C 67.576 145.046,66.574 144.867,65.828 144.800 C 65.004 144.725,64.143 144.512,63.636 144.257 C 63.177 144.027,62.350 143.780,61.797 143.708 C 61.245 143.637,60.597 143.424,60.357 143.236 C 60.112 143.043,59.437 142.837,58.813 142.764 C 58.195 142.693,57.513 142.486,57.274 142.298 C 57.038 142.112,56.515 141.899,56.113 141.825 C 55.710 141.751,55.144 141.494,54.856 141.253 C 54.567 141.013,54.183 140.816,54.002 140.816 C 53.820 140.816,53.455 140.615,53.189 140.369 C 52.924 140.123,52.461 139.868,52.161 139.802 C 51.861 139.736,51.470 139.522,51.292 139.325 C 51.115 139.129,50.686 138.915,50.341 138.850 C 49.995 138.785,49.633 138.585,49.536 138.404 C 49.439 138.224,49.129 138.018,48.845 137.948 C 48.235 137.796,46.871 136.902,45.456 135.726 C 44.895 135.260,44.365 134.879,44.277 134.879 C 44.189 134.879,43.952 134.671,43.752 134.416 C 43.551 134.160,43.273 133.952,43.134 133.952 C 42.996 133.952,42.829 133.785,42.764 133.581 C 42.700 133.377,42.572 133.210,42.480 133.210 C 42.388 133.210,42.061 132.980,41.753 132.699 C 41.444 132.419,40.928 131.981,40.606 131.725 C 40.284 131.470,39.454 130.691,38.762 129.993 C 37.233 128.452,37.043 128.396,33.271 128.390 C 29.202 128.384,29.090 128.207,31.562 125.692 C 33.219 124.006,33.393 123.458,32.560 122.559 C 32.305 122.284,32.096 121.929,32.096 121.770 C 32.096 121.612,31.888 121.234,31.633 120.931 C 31.378 120.628,31.169 120.248,31.169 120.087 C 31.169 119.926,30.960 119.520,30.705 119.186 C 30.450 118.851,30.241 118.453,30.241 118.301 C 30.241 118.149,30.038 117.783,29.789 117.488 C 29.541 117.193,29.281 116.725,29.212 116.449 C 29.142 116.173,28.935 115.842,28.752 115.713 C 28.568 115.584,28.359 115.167,28.288 114.785 C 28.216 114.403,28.004 113.984,27.818 113.853 C 27.595 113.697,27.413 113.210,27.289 112.441 C 27.185 111.796,26.977 111.132,26.826 110.965 C 26.676 110.799,26.468 110.138,26.365 109.496 C 26.261 108.853,26.016 108.061,25.820 107.735 C 25.624 107.409,25.407 106.690,25.337 106.136 C 25.267 105.582,25.060 104.914,24.877 104.652 C 24.615 104.276,24.500 103.522,24.339 101.113 C 24.214 99.236,24.017 97.728,23.832 97.216 C 23.394 96.008,23.393 89.522,23.832 88.314 C 24.018 87.799,24.210 86.309,24.333 84.417 C 24.487 82.032,24.607 81.230,24.871 80.793 C 25.058 80.485,25.294 79.711,25.397 79.074 C 25.500 78.436,25.710 77.789,25.864 77.634 C 26.019 77.480,26.193 77.043,26.253 76.664 C 26.312 76.284,26.400 75.729,26.448 75.430 C 26.496 75.130,26.662 74.745,26.817 74.573 C 26.973 74.402,27.183 73.747,27.284 73.118 C 27.391 72.453,27.613 71.830,27.815 71.628 C 28.006 71.437,28.224 71.001,28.299 70.659 C 28.374 70.317,28.577 69.938,28.749 69.818 C 28.921 69.697,29.161 69.268,29.282 68.863 C 29.403 68.458,29.616 68.084,29.755 68.030 C 29.894 67.977,30.066 67.697,30.136 67.408 C 30.207 67.119,30.449 66.591,30.675 66.234 C 31.265 65.299,31.676 64.563,32.022 63.822 C 32.189 63.465,32.660 62.773,33.069 62.284 C 34.069 61.090,34.042 60.669,32.895 59.586 C 32.175 58.905,31.354 57.747,31.354 57.411 C 31.354 57.162,32.964 56.957,34.928 56.957 L 37.333 56.957 38.286 55.908 C 38.810 55.331,39.323 54.789,39.425 54.704 C 39.527 54.618,40.278 53.994,41.095 53.317 C 42.654 52.022,42.838 51.866,43.621 51.172 C 43.888 50.936,44.228 50.659,44.378 50.557 C 45.417 49.846,46.382 49.071,46.382 48.946 C 46.382 48.865,46.674 48.677,47.032 48.528 C 47.389 48.379,47.681 48.175,47.681 48.076 C 47.681 47.976,47.994 47.795,48.377 47.672 C 48.759 47.550,49.239 47.303,49.443 47.124 C 49.647 46.945,50.127 46.699,50.509 46.577 C 50.891 46.454,51.266 46.247,51.344 46.116 C 51.421 45.985,51.787 45.780,52.158 45.659 C 52.528 45.539,52.979 45.277,53.160 45.077 C 53.342 44.876,53.632 44.712,53.806 44.712 C 53.980 44.712,54.424 44.508,54.792 44.258 C 55.160 44.008,55.757 43.748,56.118 43.681 C 56.480 43.613,56.962 43.411,57.191 43.233 C 57.420 43.054,58.082 42.850,58.664 42.778 C 59.245 42.706,59.914 42.495,60.150 42.310 C 60.386 42.124,61.152 41.883,61.851 41.774 C 62.551 41.665,63.275 41.440,63.459 41.273 C 63.660 41.091,64.375 40.899,65.246 40.795 C 66.044 40.698,67.115 40.494,67.625 40.341 C 68.197 40.169,70.045 39.990,72.441 39.875 C 74.579 39.772,76.373 39.644,76.427 39.590 C 76.481 39.537,76.796 39.543,77.127 39.606 C 77.459 39.668,79.392 39.791,81.423 39.879 M142.132 65.812 C 141.667 66.188,141.826 67.529,142.373 67.851 C 142.508 67.931,142.718 68.299,142.838 68.670 C 142.958 69.040,143.220 69.491,143.421 69.672 C 143.621 69.854,143.785 70.145,143.785 70.319 C 143.785 70.494,143.943 70.837,144.135 71.082 C 144.328 71.327,144.625 71.818,144.795 72.174 C 144.964 72.529,145.349 73.237,145.649 73.748 C 145.949 74.258,146.403 75.114,146.657 75.649 C 146.912 76.185,147.191 76.623,147.278 76.623 C 147.365 76.623,147.533 76.944,147.650 77.335 C 147.767 77.727,148.031 78.199,148.236 78.384 C 148.441 78.570,148.609 78.864,148.609 79.039 C 148.609 79.213,148.778 79.571,148.985 79.834 C 149.191 80.097,149.491 80.588,149.650 80.926 C 149.809 81.264,150.182 81.957,150.479 82.468 C 150.776 82.978,151.185 83.739,151.389 84.159 C 151.592 84.579,151.879 85.023,152.027 85.146 C 152.174 85.269,152.349 85.616,152.416 85.917 C 152.482 86.219,152.726 86.693,152.959 86.971 C 153.191 87.249,153.444 87.686,153.521 87.941 C 153.598 88.196,153.808 88.571,153.989 88.776 C 154.169 88.980,154.378 89.355,154.453 89.610 C 154.528 89.865,154.696 90.199,154.826 90.353 C 155.059 90.625,155.458 91.355,156.206 92.879 C 156.413 93.299,156.703 93.743,156.850 93.866 C 156.998 93.988,157.170 94.322,157.233 94.607 C 157.296 94.893,157.499 95.290,157.686 95.490 C 157.872 95.690,158.200 96.223,158.414 96.674 C 158.628 97.126,158.885 97.621,158.984 97.774 C 159.083 97.927,159.290 98.302,159.443 98.609 C 159.596 98.915,159.869 99.457,160.048 99.814 C 160.228 100.172,160.503 100.619,160.661 100.808 C 160.906 101.103,160.959 102.419,161.039 110.195 C 161.114 117.484,161.181 119.298,161.386 119.545 C 161.847 120.099,173.344 120.001,173.737 119.439 C 173.989 119.080,174.026 117.895,174.026 110.268 C 174.026 104.439,174.092 101.365,174.224 101.079 C 174.334 100.843,174.667 100.232,174.966 99.722 C 175.264 99.212,175.723 98.377,175.985 97.866 C 176.247 97.356,176.702 96.521,176.996 96.011 C 177.291 95.501,177.707 94.750,177.922 94.341 C 178.137 93.933,178.555 93.182,178.852 92.672 C 179.149 92.161,179.573 91.368,179.796 90.909 C 180.019 90.450,180.267 90.031,180.349 89.978 C 180.430 89.925,180.673 89.507,180.888 89.050 C 181.104 88.593,181.523 87.801,181.818 87.291 C 182.114 86.781,182.531 86.030,182.746 85.622 C 182.960 85.213,183.379 84.462,183.676 83.952 C 183.972 83.442,184.397 82.648,184.620 82.189 C 184.843 81.730,185.091 81.311,185.172 81.258 C 185.253 81.205,185.496 80.787,185.712 80.330 C 185.928 79.873,186.346 79.082,186.642 78.571 C 186.937 78.061,187.355 77.310,187.570 76.902 C 187.784 76.494,188.203 75.742,188.499 75.232 C 188.796 74.722,189.221 73.929,189.444 73.469 C 189.666 73.010,189.915 72.591,189.996 72.538 C 190.077 72.485,190.320 72.068,190.536 71.610 C 190.752 71.153,191.170 70.362,191.466 69.852 C 191.761 69.341,192.178 68.590,192.392 68.182 C 192.606 67.774,192.913 67.196,193.076 66.898 C 193.787 65.595,193.064 65.458,185.837 65.529 L 180.115 65.584 179.769 66.048 C 179.578 66.303,179.263 66.721,179.069 66.976 C 178.875 67.231,178.653 67.648,178.576 67.904 C 178.499 68.159,178.288 68.534,178.108 68.738 C 177.927 68.942,177.718 69.318,177.644 69.573 C 177.569 69.828,177.361 70.204,177.181 70.408 C 177.001 70.612,176.743 71.092,176.608 71.475 C 176.474 71.858,176.306 72.171,176.237 72.171 C 176.167 72.171,175.890 72.609,175.620 73.145 C 175.351 73.680,174.889 74.536,174.594 75.046 C 174.299 75.557,173.928 76.250,173.769 76.588 C 173.610 76.925,173.310 77.417,173.103 77.680 C 172.896 77.943,172.727 78.300,172.727 78.475 C 172.727 78.649,172.560 78.944,172.355 79.129 C 172.150 79.315,171.886 79.787,171.769 80.179 C 171.651 80.570,171.482 80.891,171.393 80.891 C 171.303 80.891,171.069 81.267,170.871 81.727 C 170.674 82.187,170.422 82.667,170.312 82.794 C 170.076 83.063,169.572 83.981,169.016 85.154 C 168.800 85.611,168.549 86.031,168.459 86.086 C 168.368 86.142,168.136 86.561,167.942 87.018 L 167.590 87.847 167.287 87.261 C 167.120 86.939,166.910 86.647,166.820 86.612 C 166.730 86.578,166.478 86.173,166.259 85.714 C 166.040 85.255,165.616 84.462,165.317 83.952 C 165.017 83.442,164.596 82.690,164.380 82.282 C 164.164 81.874,163.707 81.039,163.365 80.427 C 163.022 79.814,162.600 79.000,162.426 78.618 C 162.253 78.235,162.044 77.922,161.961 77.922 C 161.878 77.922,161.710 77.609,161.587 77.226 C 161.465 76.844,161.217 76.364,161.037 76.160 C 160.858 75.955,160.650 75.580,160.575 75.325 C 160.501 75.070,160.293 74.694,160.113 74.490 C 159.933 74.286,159.689 73.816,159.571 73.445 C 159.452 73.075,159.199 72.631,159.008 72.458 C 158.817 72.285,158.605 71.920,158.537 71.647 C 158.468 71.374,158.303 71.025,158.168 70.872 C 157.928 70.599,157.535 69.882,156.773 68.329 C 156.562 67.899,156.306 67.496,156.202 67.432 C 156.099 67.368,155.886 66.995,155.729 66.603 C 155.321 65.584,155.418 65.599,148.689 65.531 C 142.948 65.473,142.528 65.491,142.132 65.812 M225.890 65.713 C 224.465 65.784,222.712 65.969,221.993 66.124 C 221.275 66.279,220.094 66.483,219.369 66.579 C 218.644 66.674,217.809 66.876,217.514 67.028 C 217.218 67.179,216.600 67.364,216.141 67.438 C 215.682 67.513,214.881 67.773,214.361 68.017 C 213.841 68.261,213.310 68.460,213.182 68.460 C 213.054 68.460,212.561 68.661,212.087 68.907 C 211.612 69.152,210.515 69.702,209.647 70.128 C 206.207 71.817,204.475 73.108,201.006 76.565 C 199.579 77.986,197.774 80.265,197.774 80.643 C 197.774 80.769,197.660 80.939,197.521 81.020 C 197.247 81.181,195.918 83.840,195.918 84.228 C 195.918 84.358,195.748 84.741,195.539 85.079 C 195.330 85.417,195.075 86.217,194.972 86.857 C 194.869 87.497,194.709 88.112,194.616 88.223 C 193.991 88.976,193.900 95.487,194.495 96.898 C 194.658 97.284,194.884 98.118,194.997 98.753 C 195.110 99.388,195.329 100.102,195.483 100.341 C 195.636 100.579,195.881 101.174,196.026 101.664 C 196.172 102.153,196.410 102.652,196.556 102.774 C 196.703 102.895,196.874 103.230,196.937 103.519 C 197.001 103.807,197.215 104.190,197.413 104.369 C 197.611 104.549,197.774 104.790,197.774 104.905 C 197.774 105.900,205.232 113.358,206.227 113.358 C 206.374 113.358,206.494 113.440,206.494 113.540 C 206.494 113.641,206.905 113.931,207.408 114.186 C 207.911 114.441,208.371 114.728,208.431 114.824 C 208.490 114.921,208.784 115.053,209.084 115.119 C 209.384 115.185,209.822 115.388,210.056 115.570 C 210.291 115.752,210.816 116.008,211.224 116.137 C 211.633 116.267,212.092 116.480,212.245 116.611 C 212.398 116.742,212.891 116.947,213.341 117.067 C 213.791 117.186,214.356 117.413,214.596 117.571 C 214.837 117.728,215.554 117.964,216.190 118.095 C 216.826 118.227,217.723 118.463,218.182 118.621 C 220.791 119.518,228.907 120.130,232.282 119.685 C 235.927 119.205,238.571 118.762,238.927 118.571 C 239.136 118.459,239.915 118.240,240.656 118.084 C 241.398 117.928,242.134 117.684,242.292 117.542 C 242.450 117.399,242.829 117.228,243.135 117.161 C 243.979 116.975,244.712 116.670,244.712 116.504 C 244.712 116.423,244.974 116.299,245.294 116.228 C 245.910 116.093,248.447 114.871,248.615 114.629 C 248.670 114.550,249.004 114.354,249.357 114.192 C 250.233 113.792,250.967 113.250,253.247 111.319 C 255.621 109.308,258.256 106.524,258.256 106.026 C 258.256 105.943,258.383 105.743,258.539 105.581 C 259.179 104.916,261.039 101.541,261.039 101.045 C 261.039 100.922,261.208 100.490,261.414 100.086 C 261.620 99.681,261.873 98.808,261.976 98.145 C 262.080 97.481,262.300 96.521,262.467 96.011 C 262.892 94.708,262.895 90.617,262.471 89.332 C 262.302 88.822,262.081 87.873,261.980 87.223 C 261.878 86.573,261.673 85.855,261.525 85.629 C 261.376 85.402,261.157 84.849,261.037 84.399 C 260.917 83.949,260.702 83.450,260.560 83.290 C 260.418 83.131,260.205 82.713,260.087 82.363 C 259.970 82.012,259.752 81.585,259.604 81.414 C 259.456 81.242,259.196 80.854,259.027 80.551 C 257.912 78.554,254.952 75.390,252.402 73.469 C 251.521 72.806,250.634 72.110,250.430 71.923 C 250.227 71.735,249.790 71.468,249.459 71.330 C 249.128 71.192,248.754 70.954,248.627 70.802 C 248.501 70.649,248.157 70.472,247.862 70.407 C 247.568 70.343,247.135 70.141,246.901 69.958 C 246.667 69.776,246.141 69.521,245.733 69.391 C 245.325 69.261,244.865 69.048,244.712 68.918 C 244.559 68.787,244.078 68.585,243.643 68.469 C 243.208 68.354,242.581 68.103,242.251 67.913 C 241.921 67.723,241.276 67.508,240.816 67.435 C 240.357 67.361,239.606 67.156,239.147 66.979 C 238.687 66.802,237.853 66.601,237.291 66.533 C 236.730 66.465,235.616 66.279,234.816 66.120 C 232.854 65.731,229.037 65.557,225.890 65.713 M272.418 65.762 C 271.566 66.133,271.589 65.267,271.651 93.661 C 271.706 118.818,271.714 119.330,272.067 119.588 C 272.559 119.948,323.351 119.988,323.711 119.629 C 324.027 119.312,324.027 110.372,323.711 110.056 C 323.540 109.885,319.004 109.833,304.423 109.833 L 285.358 109.833 284.984 109.432 C 284.614 109.035,284.610 108.791,284.559 87.616 L 284.508 66.201 284.070 65.846 C 283.499 65.383,273.455 65.311,272.418 65.762 M334.137 65.620 C 333.882 65.671,333.569 65.798,333.442 65.903 C 333.110 66.176,333.100 119.297,333.432 119.629 C 333.867 120.063,345.583 119.935,345.819 119.493 C 346.188 118.804,346.076 66.147,345.705 65.839 C 345.397 65.584,335.281 65.392,334.137 65.620 M154.686 66.565 C 155.100 66.883,155.532 67.561,156.130 68.831 C 156.299 69.188,156.584 69.647,156.765 69.852 C 156.946 70.056,157.148 70.450,157.214 70.728 C 157.279 71.005,157.488 71.381,157.677 71.563 C 157.866 71.744,158.119 72.195,158.238 72.566 C 158.358 72.936,158.619 73.387,158.820 73.568 C 159.020 73.750,159.184 74.041,159.184 74.215 C 159.184 74.390,159.341 74.733,159.534 74.978 C 159.727 75.223,160.025 75.714,160.196 76.070 C 160.834 77.393,161.326 78.266,161.621 78.599 C 161.788 78.788,161.983 79.214,162.053 79.545 C 162.124 79.877,162.331 80.252,162.513 80.380 C 162.695 80.508,162.902 80.873,162.972 81.192 C 163.042 81.511,163.303 81.964,163.553 82.198 C 163.803 82.433,164.008 82.798,164.008 83.010 C 164.008 83.222,164.216 83.638,164.471 83.934 C 164.726 84.231,164.935 84.574,164.935 84.697 C 164.935 84.820,165.135 85.216,165.380 85.576 C 165.625 85.937,165.887 86.429,165.963 86.669 C 166.393 88.036,168.054 88.750,168.380 87.708 C 168.452 87.479,168.708 87.055,168.949 86.767 C 169.190 86.478,169.388 86.095,169.388 85.914 C 169.388 85.734,169.552 85.438,169.752 85.257 C 169.952 85.076,170.214 84.624,170.335 84.254 C 170.455 83.884,170.661 83.517,170.792 83.440 C 170.923 83.363,171.130 82.987,171.252 82.605 C 171.374 82.223,171.625 81.744,171.809 81.540 C 171.993 81.336,172.199 80.945,172.266 80.672 C 172.334 80.399,172.499 80.133,172.633 80.082 C 172.766 80.031,172.978 79.670,173.104 79.280 C 173.230 78.890,173.488 78.423,173.677 78.242 C 173.867 78.060,174.077 77.685,174.145 77.407 C 174.212 77.129,174.457 76.674,174.688 76.396 C 174.919 76.118,175.162 75.645,175.228 75.345 C 175.293 75.045,175.459 74.756,175.596 74.704 C 175.732 74.651,175.947 74.290,176.073 73.900 C 176.199 73.510,176.457 73.042,176.648 72.859 C 176.839 72.677,176.996 72.426,176.998 72.303 C 177.000 72.179,177.250 71.711,177.554 71.262 C 177.859 70.812,178.108 70.309,178.108 70.143 C 178.108 69.977,178.272 69.700,178.474 69.528 C 178.675 69.356,178.896 68.982,178.966 68.698 C 179.035 68.414,179.288 67.946,179.527 67.657 C 179.767 67.369,179.963 67.062,179.963 66.975 C 179.963 66.285,180.401 66.234,186.308 66.234 L 192.071 66.234 191.975 67.080 C 191.922 67.556,191.717 68.105,191.508 68.333 C 191.304 68.556,191.076 68.947,191.002 69.202 C 190.927 69.457,190.719 69.833,190.538 70.037 C 190.357 70.241,190.149 70.617,190.074 70.872 C 190.000 71.127,189.791 71.503,189.610 71.707 C 189.430 71.911,189.219 72.287,189.143 72.542 C 189.066 72.797,188.806 73.242,188.565 73.530 C 188.323 73.818,188.126 74.254,188.126 74.498 C 188.126 74.745,187.969 75.025,187.770 75.131 C 187.574 75.236,187.313 75.636,187.191 76.019 C 187.068 76.402,186.820 76.883,186.640 77.087 C 186.461 77.291,186.253 77.667,186.178 77.922 C 186.104 78.177,185.895 78.553,185.714 78.757 C 185.534 78.961,185.325 79.337,185.250 79.592 C 185.176 79.847,184.967 80.223,184.787 80.427 C 184.606 80.631,184.395 81.006,184.319 81.262 C 184.242 81.517,183.982 81.961,183.741 82.250 C 183.500 82.538,183.302 82.976,183.302 83.222 C 183.302 83.472,183.136 83.774,182.927 83.904 C 182.720 84.032,182.461 84.469,182.352 84.875 C 182.242 85.280,181.997 85.721,181.807 85.854 C 181.617 85.987,181.407 86.388,181.340 86.745 C 181.273 87.102,181.071 87.473,180.890 87.570 C 180.710 87.666,180.510 87.954,180.446 88.209 C 180.382 88.464,180.122 88.979,179.868 89.353 C 179.614 89.727,179.406 90.114,179.406 90.212 C 179.406 90.311,179.198 90.640,178.942 90.943 C 178.687 91.246,178.479 91.696,178.479 91.942 C 178.479 92.192,178.312 92.494,178.103 92.624 C 177.896 92.752,177.637 93.189,177.528 93.595 C 177.418 94.000,177.173 94.441,176.983 94.574 C 176.794 94.707,176.583 95.108,176.516 95.465 C 176.449 95.822,176.247 96.193,176.067 96.290 C 175.886 96.386,175.686 96.674,175.622 96.929 C 175.558 97.184,175.298 97.699,175.044 98.073 C 174.790 98.447,174.583 98.854,174.583 98.977 C 174.583 99.100,174.413 99.397,174.205 99.636 C 173.998 99.876,173.737 100.432,173.626 100.874 C 173.515 101.315,173.351 101.721,173.261 101.777 C 173.172 101.832,173.098 105.590,173.098 110.129 C 173.098 117.412,173.063 118.434,172.799 118.838 L 172.499 119.295 167.163 119.295 L 161.827 119.295 161.712 118.715 C 161.648 118.396,161.596 114.238,161.596 109.475 L 161.596 100.814 161.132 100.186 C 160.877 99.840,160.668 99.454,160.668 99.329 C 160.668 99.203,160.472 98.865,160.232 98.576 C 159.993 98.288,159.740 97.820,159.671 97.537 C 159.602 97.254,159.389 96.865,159.197 96.674 C 159.006 96.483,158.791 96.130,158.720 95.890 C 158.648 95.651,158.409 95.162,158.187 94.805 C 157.565 93.804,157.186 93.115,156.783 92.254 C 156.580 91.821,156.334 91.466,156.237 91.466 C 156.139 91.466,156.004 91.213,155.936 90.905 C 155.868 90.596,155.624 90.116,155.393 89.838 C 155.162 89.560,154.917 89.105,154.850 88.827 C 154.782 88.549,154.571 88.174,154.381 87.992 C 154.191 87.811,153.974 87.454,153.901 87.199 C 153.827 86.943,153.585 86.442,153.363 86.085 C 152.742 85.084,152.362 84.395,151.959 83.534 C 151.756 83.101,151.510 82.746,151.413 82.746 C 151.315 82.746,151.180 82.493,151.112 82.185 C 151.044 81.876,150.800 81.396,150.569 81.118 C 150.338 80.840,150.094 80.385,150.026 80.107 C 149.958 79.829,149.748 79.454,149.559 79.272 C 149.369 79.091,149.119 78.648,149.003 78.287 C 148.887 77.927,148.625 77.489,148.422 77.315 C 148.218 77.141,148.052 76.846,148.052 76.661 C 148.052 76.476,147.843 76.042,147.588 75.696 C 147.333 75.350,147.124 74.962,147.124 74.834 C 147.124 74.706,146.916 74.376,146.660 74.101 C 146.405 73.826,146.197 73.452,146.197 73.271 C 146.197 73.090,146.001 72.705,145.761 72.417 C 145.521 72.128,145.270 71.665,145.202 71.387 C 145.134 71.110,144.924 70.734,144.735 70.552 C 144.546 70.371,144.296 69.928,144.179 69.567 C 144.063 69.207,143.802 68.769,143.598 68.595 C 143.395 68.421,143.228 68.148,143.228 67.989 C 143.228 67.830,143.069 67.370,142.874 66.967 L 142.520 66.234 148.393 66.238 C 153.685 66.242,154.309 66.274,154.686 66.565 M229.963 66.497 C 230.779 66.638,232.699 66.811,234.230 66.883 C 236.448 66.986,237.127 67.082,237.575 67.355 C 237.884 67.543,238.787 67.778,239.583 67.877 C 240.389 67.977,241.168 68.182,241.343 68.341 C 241.516 68.497,242.064 68.716,242.561 68.827 C 243.058 68.938,243.664 69.187,243.908 69.379 C 244.153 69.571,244.676 69.783,245.072 69.850 C 245.468 69.917,245.934 70.128,246.107 70.318 C 246.279 70.509,246.683 70.723,247.004 70.793 C 247.325 70.863,247.824 71.118,248.113 71.360 C 248.401 71.602,248.720 71.800,248.821 71.800 C 248.922 71.800,249.278 72.008,249.612 72.263 C 249.947 72.519,250.302 72.727,250.401 72.727 C 250.501 72.727,250.763 72.915,250.984 73.145 C 251.205 73.374,251.645 73.771,251.962 74.026 C 253.540 75.299,255.585 77.296,256.769 78.723 C 257.377 79.456,258.032 80.223,258.223 80.427 C 258.414 80.631,258.626 81.025,258.694 81.303 C 258.762 81.581,258.968 81.956,259.152 82.138 C 259.337 82.319,259.591 82.827,259.717 83.266 C 259.843 83.705,260.058 84.107,260.195 84.160 C 260.332 84.212,260.501 84.646,260.570 85.124 C 260.640 85.602,260.869 86.285,261.081 86.642 C 261.978 88.157,261.977 97.547,261.080 98.815 C 260.871 99.110,260.648 99.738,260.584 100.211 C 260.518 100.688,260.313 101.209,260.122 101.382 C 259.932 101.554,259.720 101.999,259.650 102.371 C 259.580 102.744,259.370 103.156,259.182 103.287 C 258.995 103.418,258.785 103.784,258.716 104.099 C 258.647 104.415,258.390 104.847,258.145 105.060 C 257.900 105.273,257.699 105.528,257.699 105.626 C 257.699 105.852,257.465 106.105,254.789 108.762 C 251.785 111.744,251.645 111.874,251.434 111.874 C 251.332 111.874,251.112 112.083,250.945 112.338 C 250.778 112.593,250.524 112.801,250.381 112.801 C 250.238 112.801,249.880 113.005,249.584 113.253 C 249.289 113.502,248.817 113.763,248.535 113.834 C 248.253 113.904,247.978 114.076,247.925 114.215 C 247.872 114.354,247.482 114.566,247.059 114.687 C 246.636 114.807,246.122 115.053,245.918 115.234 C 245.714 115.414,245.187 115.643,244.746 115.742 C 244.305 115.841,243.786 116.065,243.593 116.240 C 243.400 116.414,242.842 116.631,242.354 116.722 C 241.865 116.812,241.372 117.011,241.258 117.165 C 241.128 117.340,240.484 117.515,239.535 117.634 C 238.701 117.739,237.709 117.978,237.331 118.167 C 235.378 119.139,221.393 119.138,219.440 118.166 C 219.060 117.977,218.115 117.744,217.339 117.647 C 216.560 117.551,215.787 117.345,215.614 117.188 C 215.441 117.032,214.894 116.813,214.397 116.702 C 213.900 116.590,213.293 116.342,213.049 116.150 C 212.805 115.958,212.281 115.746,211.885 115.679 C 211.489 115.612,211.023 115.401,210.851 115.210 C 210.678 115.019,210.274 114.806,209.953 114.736 C 209.632 114.666,209.133 114.411,208.845 114.169 C 208.556 113.927,208.208 113.729,208.071 113.729 C 207.933 113.729,207.585 113.533,207.296 113.293 C 207.008 113.053,206.677 112.823,206.561 112.783 C 205.987 112.581,201.434 108.477,200.462 107.285 C 199.851 106.535,199.121 105.662,198.840 105.345 C 198.560 105.028,198.330 104.667,198.330 104.543 C 198.330 104.419,198.160 104.101,197.953 103.837 C 197.745 103.573,197.483 103.082,197.370 102.745 C 197.258 102.409,197.019 101.967,196.840 101.763 C 196.661 101.558,196.457 101.039,196.386 100.608 C 196.316 100.178,196.103 99.627,195.912 99.385 C 195.666 99.071,195.508 98.388,195.366 97.014 C 195.256 95.952,195.087 94.750,194.990 94.341 C 194.763 93.383,194.766 91.954,194.997 90.952 C 195.098 90.516,195.263 89.360,195.364 88.383 C 195.495 87.124,195.652 86.475,195.903 86.155 C 196.099 85.907,196.316 85.362,196.387 84.946 C 196.457 84.529,196.714 83.894,196.959 83.534 C 197.203 83.174,197.403 82.760,197.403 82.615 C 197.403 82.469,197.611 82.076,197.866 81.742 C 198.122 81.407,198.330 81.025,198.330 80.893 C 198.330 80.760,198.498 80.476,198.704 80.261 C 199.401 79.533,200.371 78.342,200.371 78.214 C 200.371 77.986,203.411 75.143,204.650 74.212 C 204.989 73.956,205.480 73.538,205.741 73.281 C 206.002 73.024,206.445 72.713,206.725 72.589 C 207.006 72.465,207.236 72.282,207.236 72.182 C 207.236 72.082,207.574 71.899,207.989 71.774 C 208.403 71.650,208.817 71.408,208.910 71.235 C 209.002 71.062,209.408 70.869,209.816 70.803 C 210.222 70.738,210.664 70.529,210.798 70.339 C 210.931 70.148,211.387 69.934,211.812 69.862 C 212.236 69.790,212.723 69.577,212.894 69.388 C 213.065 69.199,213.553 68.986,213.978 68.916 C 214.796 68.780,215.417 68.518,215.606 68.229 C 215.669 68.133,216.364 67.982,217.149 67.893 C 217.965 67.802,218.830 67.582,219.168 67.379 C 219.652 67.088,220.395 66.987,223.284 66.817 C 225.223 66.702,227.059 66.531,227.365 66.437 C 228.130 66.202,228.273 66.205,229.963 66.497 M283.743 66.814 C 283.807 67.132,283.860 76.921,283.862 88.567 C 283.864 101.585,283.932 109.847,284.041 110.019 C 284.195 110.262,286.657 110.308,303.750 110.390 L 323.284 110.482 323.336 114.471 C 323.365 116.665,323.343 118.648,323.286 118.878 L 323.184 119.295 298.068 119.295 C 275.337 119.295,272.942 119.267,272.840 119.002 C 272.685 118.599,272.696 66.512,272.851 66.357 C 272.919 66.289,275.371 66.234,278.301 66.234 L 283.627 66.234 283.743 66.814 M345.025 66.637 L 345.455 67.041 345.455 92.762 L 345.455 118.483 344.905 118.889 C 344.185 119.422,335.306 119.525,334.314 119.012 L 333.766 118.729 333.766 92.676 C 333.766 68.060,333.784 66.613,334.091 66.434 C 334.828 66.005,344.544 66.186,345.025 66.637 M223.981 75.311 C 223.650 75.395,223.265 75.558,223.125 75.673 C 222.986 75.789,222.213 75.967,221.408 76.069 C 220.534 76.179,219.757 76.390,219.481 76.593 C 219.225 76.780,218.692 76.985,218.294 77.049 C 217.897 77.113,217.396 77.327,217.181 77.524 C 216.966 77.721,216.519 77.939,216.188 78.010 C 215.856 78.080,215.480 78.284,215.353 78.463 C 215.225 78.643,214.912 78.844,214.657 78.910 C 213.819 79.127,209.626 83.051,209.370 83.856 C 209.305 84.062,209.172 84.230,209.075 84.230 C 208.979 84.230,208.755 84.543,208.578 84.926 C 208.401 85.308,208.113 85.728,207.939 85.859 C 207.764 85.989,207.566 86.407,207.498 86.786 C 207.431 87.166,207.206 87.662,207.000 87.889 C 206.500 88.437,206.252 91.123,206.413 94.249 C 206.522 96.368,206.687 97.125,207.221 97.959 C 207.319 98.112,207.448 98.470,207.508 98.754 C 207.568 99.038,207.782 99.411,207.983 99.584 C 208.184 99.756,208.349 99.986,208.349 100.094 C 208.349 100.983,213.057 105.847,214.581 106.531 C 214.875 106.664,215.258 106.913,215.432 107.086 C 215.607 107.259,216.041 107.455,216.397 107.522 C 216.753 107.589,217.187 107.800,217.360 107.992 C 217.534 108.184,217.978 108.395,218.346 108.461 C 218.715 108.526,219.278 108.737,219.598 108.930 C 219.918 109.122,220.815 109.361,221.592 109.459 C 222.369 109.558,223.231 109.786,223.507 109.968 C 224.288 110.479,232.442 110.463,233.388 109.947 C 233.741 109.755,234.636 109.530,235.377 109.447 C 236.210 109.353,236.920 109.157,237.239 108.932 C 237.523 108.733,238.060 108.517,238.432 108.454 C 238.804 108.391,239.305 108.188,239.545 108.003 C 239.785 107.817,240.257 107.572,240.593 107.457 C 240.930 107.343,241.421 107.079,241.685 106.871 C 241.949 106.663,242.276 106.494,242.412 106.494 C 242.548 106.494,242.748 106.327,242.857 106.122 C 242.966 105.918,243.163 105.751,243.295 105.751 C 243.763 105.751,247.681 101.625,247.681 101.133 C 247.681 101.027,247.839 100.856,248.032 100.753 C 248.226 100.649,248.477 100.297,248.591 99.970 C 248.705 99.642,248.930 99.229,249.091 99.051 C 249.252 98.873,249.465 98.368,249.564 97.929 C 249.662 97.489,249.884 96.974,250.057 96.783 C 250.330 96.481,250.371 95.947,250.371 92.672 C 250.371 89.396,250.330 88.862,250.057 88.560 C 249.884 88.370,249.662 87.852,249.563 87.410 C 249.463 86.968,249.208 86.421,248.995 86.195 C 248.783 85.968,248.609 85.680,248.609 85.555 C 248.609 85.429,248.421 85.138,248.191 84.909 C 247.962 84.679,247.678 84.286,247.561 84.036 C 247.006 82.847,243.214 79.303,242.006 78.844 C 241.760 78.750,241.558 78.591,241.558 78.491 C 241.558 78.390,241.204 78.207,240.770 78.084 C 240.336 77.960,239.814 77.711,239.610 77.531 C 239.406 77.350,238.879 77.122,238.438 77.022 C 237.997 76.923,237.486 76.707,237.303 76.541 C 237.102 76.360,236.406 76.177,235.552 76.081 C 234.706 75.986,233.929 75.783,233.625 75.577 C 233.068 75.199,225.280 74.985,223.981 75.311 M231.966 76.177 C 233.824 76.442,235.689 76.810,236.112 76.993 C 236.535 77.177,237.162 77.388,237.504 77.463 C 237.846 77.537,238.418 77.754,238.776 77.945 C 239.133 78.136,239.717 78.422,240.074 78.581 C 242.175 79.515,245.214 82.038,246.668 84.055 C 246.970 84.475,247.405 85.032,247.635 85.293 C 247.864 85.555,248.052 85.870,248.052 85.994 C 248.052 86.118,248.249 86.510,248.490 86.865 C 248.731 87.220,249.037 87.962,249.169 88.514 C 249.301 89.066,249.521 89.786,249.658 90.115 C 250.000 90.935,249.992 94.429,249.646 95.257 C 249.502 95.602,249.288 96.345,249.171 96.910 C 249.054 97.475,248.796 98.143,248.598 98.395 C 248.400 98.647,248.237 98.926,248.237 99.015 C 248.237 99.203,247.102 100.998,246.694 101.454 C 245.113 103.223,241.952 106.122,241.605 106.122 C 241.506 106.122,241.136 106.318,240.783 106.558 C 240.431 106.797,239.904 107.053,239.613 107.126 C 239.321 107.199,238.886 107.414,238.646 107.603 C 238.405 107.792,237.856 108.005,237.425 108.076 C 236.994 108.147,236.306 108.356,235.896 108.540 C 235.215 108.847,229.500 109.732,228.386 109.704 C 227.081 109.670,221.567 108.842,221.123 108.613 C 220.842 108.468,220.170 108.256,219.629 108.142 C 219.088 108.029,218.516 107.822,218.358 107.683 C 218.200 107.545,217.715 107.305,217.279 107.152 C 216.844 106.998,216.273 106.704,216.011 106.497 C 215.749 106.291,215.420 106.122,215.279 106.122 C 214.824 106.122,212.266 103.898,210.938 102.347 C 209.012 100.097,208.905 99.960,208.905 99.728 C 208.905 99.611,208.701 99.239,208.451 98.900 C 208.202 98.561,207.941 98.023,207.872 97.704 C 207.803 97.385,207.570 96.790,207.355 96.382 C 206.821 95.372,206.755 89.995,207.267 89.214 C 207.437 88.955,207.670 88.393,207.785 87.966 C 207.900 87.540,208.199 86.889,208.450 86.519 C 208.700 86.150,208.905 85.775,208.905 85.686 C 208.905 84.930,214.424 79.406,215.179 79.406 C 215.260 79.406,215.604 79.202,215.942 78.952 C 216.281 78.702,216.819 78.441,217.138 78.371 C 217.457 78.302,217.917 78.089,218.160 77.898 C 218.404 77.707,218.738 77.548,218.903 77.545 C 219.067 77.542,219.661 77.367,220.223 77.156 C 221.143 76.811,226.789 75.777,228.070 75.719 C 228.356 75.706,230.109 75.913,231.966 76.177 " stroke="none" fill="#f4d488" fill-rule="evenodd"></path><path id="path4" d="M31.918 57.163 C 31.666 57.264,31.436 57.370,31.407 57.400 C 31.241 57.566,32.101 58.836,32.872 59.564 C 33.364 60.029,33.766 60.509,33.766 60.631 C 33.766 60.753,33.851 60.853,33.955 60.853 C 34.059 60.853,40.645 67.348,48.591 75.287 C 56.536 83.225,63.343 89.952,63.715 90.237 L 64.393 90.754 69.882 85.299 C 74.848 80.365,75.358 79.802,75.230 79.394 C 75.089 78.945,54.537 58.236,53.399 57.397 L 52.804 56.957 42.589 56.969 C 36.358 56.976,32.197 57.052,31.918 57.163 M100.186 57.163 C 99.729 57.342,38.734 118.164,33.040 124.119 C 30.133 127.159,29.535 128.032,30.187 128.282 C 31.204 128.673,50.598 128.630,51.411 128.235 C 52.520 127.697,121.436 58.780,121.622 58.022 C 121.894 56.919,122.271 56.956,110.970 56.969 C 104.686 56.976,100.468 57.052,100.186 57.163 M53.183 57.931 C 53.817 58.220,74.117 78.501,74.487 79.215 L 74.755 79.734 69.937 84.559 C 64.656 89.847,64.434 90.039,63.926 89.754 C 62.992 89.231,32.429 58.406,32.637 58.197 C 33.112 57.721,52.177 57.474,53.183 57.931 M118.060 57.822 C 119.805 57.911,120.468 58.011,120.539 58.195 C 120.676 58.554,122.009 57.201,85.206 94.060 L 51.581 127.737 41.542 127.712 C 29.524 127.682,30.240 127.849,32.397 125.586 C 37.341 120.400,99.638 58.173,100.093 57.967 C 100.706 57.688,113.427 57.586,118.060 57.822 M62.449 119.527 C 54.828 127.127,54.141 127.934,55.009 128.268 C 55.593 128.491,123.029 128.412,123.300 128.187 C 123.822 127.753,122.889 126.615,118.396 122.203 C 117.442 121.267,116.565 120.399,116.448 120.274 C 114.707 118.427,109.004 112.765,108.580 112.463 L 108.013 112.059 88.976 112.059 L 69.938 112.059 62.449 119.527 M108.204 112.916 C 108.523 113.080,111.211 115.666,114.179 118.661 C 121.543 126.095,122.501 127.110,122.324 127.284 C 121.611 127.988,55.473 127.993,55.473 127.289 C 55.473 127.034,69.057 113.484,69.759 113.039 L 70.408 112.628 89.017 112.622 C 105.790 112.617,107.682 112.646,108.204 112.916 " stroke="none" fill="#888888" fill-rule="evenodd"></path></g></svg>