<?xml version="1.0" standalone="no"?>
<!DOCTYPE svg PUBLIC "-//W3C//DTD SVG 20010904//EN"
 "http://www.w3.org/TR/2001/REC-SVG-20010904/DTD/svg10.dtd">
<svg version="1.0" xmlns="http://www.w3.org/2000/svg"
 width="414.000000pt" height="192.000000pt" viewBox="0 0 414.000000 192.000000"
 preserveAspectRatio="xMidYMid meet">

<g transform="translate(0.000000,192.000000) scale(0.100000,-0.100000)"
fill="#000000" stroke="none">
<path d="M330 1323 c0 -4 75 -83 167 -175 l168 -168 57 57 58 58 -117 117
-118 118 -107 0 c-60 0 -108 -3 -108 -7z"/>
<path d="M675 968 c-354 -356 -360 -362 -330 -369 17 -4 66 -7 110 -8 l79 -1
334 333 c183 182 347 349 364 370 l30 37 -114 0 -114 0 -359 -362z"/>
<path d="M647 682 c-42 -42 -77 -81 -77 -85 0 -9 589 -9 654 -1 l48 7 -78 78
-79 79 -195 0 -195 0 -78 -78z"/>
</g>
</svg>
