<svg xmlns="http://www.w3.org/2000/svg" viewBox="0 0 88.6 101.6"><defs><style>.cls-1,.cls-2{}.cls-1{fill-rule:evenodd;}</style></defs><g id="Camada_2" data-name="Camada 2"><g id="Camada_1-2" data-name="Camada 1"><path class="cls-1" d="M33.57,75.61,42.85,81a2.89,2.89,0,0,0,2.9,0L55,75.61a2.91,2.91,0,0,0,1.32-3.36L48,44.84a.93.93,0,0,0-.89-.66H41.5a.93.93,0,0,0-.89.66L32.25,72.25A2.89,2.89,0,0,0,33.57,75.61Z"/><path class="cls-1" d="M37.53,31.69h0a17.83,17.83,0,0,1,13.54,0h0a1.91,1.91,0,0,1,.94,2.7l-3.52,6.28a2.45,2.45,0,0,1-2.13,1.25H42.24a2.43,2.43,0,0,1-2.13-1.25l-3.52-6.28A1.91,1.91,0,0,1,37.53,31.69Z"/><path class="cls-2" d="M88.6,26.53a.66.66,0,0,0,0-.14h0a.71.71,0,0,0,0-.14v0a.43.43,0,0,1,0-.11v0s0-.06,0-.09a2.41,2.41,0,0,0-.08-.25v0a2.22,2.22,0,0,0-1-1.14L45.44.3a2.32,2.32,0,0,0-2.28,0l-42,24.27a2.22,2.22,0,0,0-1,1.14v0A2.41,2.41,0,0,0,.07,26s0,.06,0,.09v0s0,.07,0,.11v0a.71.71,0,0,0,0,.14H0v.14H0V75.06a2.25,2.25,0,0,0,1.14,2l42,24.27a2.31,2.31,0,0,0,1.14.3,2.34,2.34,0,0,0,1.14-.3L87.46,77a2.25,2.25,0,0,0,1.14-2V26.54ZM44.3,96.7l-39.75-23V30.48l22.3,12.87a2.19,2.19,0,0,0,1.13.31,2.28,2.28,0,0,0,1.14-4.25L6.82,26.54,44.3,4.9,81.78,26.54,59.48,39.41a2.28,2.28,0,0,0,1.14,4.25,2.24,2.24,0,0,0,1.13-.31l22.3-12.87V73.75Z"/></g></g></svg>